<?xml version="1.0" encoding="UTF-8"?>
<svg id="Calque_2" data-name="Calque 2" xmlns="http://www.w3.org/2000/svg" viewBox="0 0 88.33 91.22">
  <g id="Layer_1" data-name="Layer 1">
    <path d="m75.99,65.67l12.12-44.2.22-.82-.1-.04h0l-16.59-6.57L38.06.75l-1.9-.75-.4.75L14.36,41.28l-1.19,2.25-4.75-1.9v.04s-.03,0-.03,0l-2.68,6.78L.39,61.89l-.39.97,2.45.97,41.59,16.45,14.2,5.61,5.52,2.19,7.93,3.13h0s.01,0,.01,0l.38-.97,5.33-13.45,2.68-6.78h-.02s0-.02,0-.02l-1.85-.72-2.91-1.14.11.04-.11-.04.67-2.46Zm-9.09,2.5l-1.29,4.71.1.04h0s3.73,1.48,3.73,1.48l.27.1-.13.33-2.38,6-17.8-7.04-14.2-5.62-24.8-9.81,2.37-6.01.12-.32,1.79.71,2.31.92,2.28-4.32h0l13.47-25.5h0l7.24-13.72,5.99,2.37,32.64,12.91-4.1,14.95h0l-7.62,27.81h0Z" style="fill: #fff;"/>
  </g>
</svg>