<?xml version="1.0" encoding="UTF-8"?>
<svg id="Calque_2" data-name="Calque 2" xmlns="http://www.w3.org/2000/svg" viewBox="0 0 83.22 86.1">
  <g id="Layer_1" data-name="Layer 1">
    <path d="m70.5,65.69l4.34-15.82,8.38-30.59-13.95-5.52L34.48,0,11.49,43.52l-.25-.1-4.32-1.71L0,59.2l5.34,2.11,11.06,4.38,14.2,5.62,37.37,14.79,5.86-14.79,1.07-2.7-4.69-1.86.29-1.06Zm-.97,5.62l-3.8,9.6-24.27-9.6-14.21-5.62-18.4-7.28-3.51-1.39-.15-.06.15-.38,2.66-6.71,1.17-2.96,1.62.64,2.56,1.01L36.35,5.04l33.42,13.22,8.64,3.42-5.91,21.56v.02l-1.81,6.61-4.34,15.82-.95,3.47,4.31,1.69-.18.46Z" style="fill: #231f20;"/>
  </g>
</svg>