<?xml version="1.0" encoding="UTF-8"?>
<svg xmlns="http://www.w3.org/2000/svg" xmlns:xlink="http://www.w3.org/1999/xlink" viewBox="0 0 2863.88 1057.21">
  <defs>
    <clipPath id="clippath">
      <polygon points="2485.89 485.4 2266.03 524.68 2168.32 524.68 2169.6 512.77 2170.58 503.68 2171.91 491.56 2197.33 259.73 2461.2 259.73 2469.87 339.27 2472.44 362.37 2480.76 438.57 2481.84 448.38 2485.53 482.52 2485.89 485.4" style="fill: none;"/>
    </clipPath>
    <clipPath id="clippath-1">
      <polygon points="2254.12 605.91 2141.62 605.91 2141.62 561.39 2159.64 568.53 2254.12 605.91" style="fill: none;"/>
    </clipPath>
    <clipPath id="clippath-2">
      <polygon points="2505.87 719.21 2150.79 719.21 2160.06 634.76 2496.6 634.76 2505.87 719.21" style="fill: none;"/>
    </clipPath>
    <clipPath id="clippath-3">
      <polygon points="2515.06 524.68 2515.06 605.91 2254.12 605.91 2159.64 568.53 2141.62 561.39 2141.62 559.13 2155.28 524.68 2515.06 524.68" style="fill: none;"/>
    </clipPath>
    <clipPath id="clippath-4">
      <polygon points="2490.21 524.68 2266.03 524.68 2485.89 485.4 2486.46 490.64 2490.21 524.68" style="fill: none;"/>
    </clipPath>
  </defs>
  <g style="isolation: isolate;">
    <g id="Layer_1" data-name="Layer 1">
      <rect x="2032.67" y="188.23" width="588.87" height="588.87" style="fill: #2b2c31;"/>
      <path d="m103.27,596.37c.29,2.72-1.84,5.1-4.58,5.1h-52.55c-2.74,0-4.87-2.38-4.57-5.1l5.99-54.64c.25-2.34,2.22-4.11,4.57-4.11h40.57c2.35,0,4.32,1.77,4.58,4.11l5.99,54.64Z" style="fill: #faf4a1;"/>
      <path d="m100.05,479.09h-52.54c-2.74,0-4.88-2.38-4.58-5.11l5.99-54.64c.26-2.34,2.23-4.1,4.58-4.1h40.56c2.35,0,4.32,1.77,4.58,4.1l5.99,54.64c.3,2.73-1.84,5.11-4.58,5.11Z" style="fill: #f2cb15;"/>
      <path d="m96.42,572.09l-48.68-19.77c-2.54-1.03-3.62-4.04-2.32-6.46l26.11-48.37c1.12-2.07,3.61-2.96,5.79-2.08l37.58,15.26c2.18.88,3.34,3.27,2.7,5.53l-15.01,52.88c-.75,2.64-3.62,4.04-6.16,3.01Z" style="fill: #d75181;"/>
      <path d="m113.04,565.46l-2.2,5.41c-.54,1.34-2.07,1.98-3.41,1.44h0c-1.34-.54-1.98-2.07-1.44-3.41l2.2-5.41c7.1-17.48-1.27-37.42-18.7-44.49s-37.35,1.37-44.45,18.85l-.04.09h0s-2.31,5.69-2.31,5.69c-.54,1.34-2.07,1.98-3.41,1.44h0c-1.34-.55-1.98-2.07-1.44-3.41l2.35-5.78c8.2-20.18,31.14-29.92,51.27-21.74,20.11,8.17,29.77,31.14,21.57,51.32Z" style="fill: #bb2f61;"/>
      <rect x="74.87" y="571.11" width="4.84" height="9.74" rx="1.7" ry="1.7" style="fill: #b26540;"/>
      <rect x="66.35" y="567.8" width="5.02" height="13.24" rx="1.7" ry="1.7" style="fill: #b26540;"/>
      <rect x="40.28" y="548.29" width="68.43" height="14.81" rx="3.91" ry="3.91" transform="translate(214.56 12.81) rotate(22.1)" style="fill: #bb2f61;"/>
      <path d="m247.09,598.57h-52.54c-2.74,0-4.88-2.38-4.58-5.11l5.99-54.64c.26-2.34,2.23-4.1,4.58-4.1h40.56c2.35,0,4.32,1.77,4.58,4.1l5.99,54.64c.3,2.73-1.84,5.11-4.58,5.11Z" style="fill: #f2cb15;"/>
      <g>
        <path d="m247.45,578.41c-1.07,0-2.13-.21-3.12-.63l-48.48-20.25c-2.12-.89-3.77-2.64-4.53-4.81-.76-2.17-.55-4.57.56-6.59l26.59-48.1c1.43-2.58,4.15-4.19,7.1-4.19,1.08,0,2.13.21,3.12.63l37.43,15.64c3.82,1.6,5.82,5.8,4.65,9.77l-15.53,52.72c-1.01,3.42-4.21,5.82-7.78,5.82Z" style="fill: #d75181;"/>
        <path d="m225.56,497.33c.59,0,1.2.12,1.77.36l37.43,15.64c2.17.91,3.31,3.3,2.64,5.55l-15.53,52.72c-.6,2.03-2.45,3.31-4.42,3.31-.59,0-1.19-.11-1.77-.36l-48.48-20.25c-2.53-1.06-3.58-4.08-2.26-6.48l26.59-48.11c.83-1.51,2.4-2.38,4.03-2.38m0-7h0c-4.22,0-8.12,2.3-10.16,5.99l-26.59,48.11c-1.59,2.88-1.89,6.32-.8,9.43,1.08,3.11,3.45,5.62,6.49,6.89l48.48,20.25c1.43.6,2.93.9,4.47.9,5.11,0,9.69-3.42,11.13-8.33l15.53-52.72c1.68-5.69-1.19-11.7-6.66-13.99l-37.43-15.64c-1.43-.6-2.93-.9-4.47-.9h0Z" style="fill: #fff;"/>
      </g>
      <path d="m258.36,481.23h-52.54c-2.74,0-4.88-2.38-4.58-5.11l5.99-54.64c.26-2.34,2.23-4.1,4.58-4.1h40.56c2.35,0,4.32,1.77,4.58,4.1l5.99,54.64c.3,2.73-1.84,5.11-4.58,5.11Z" style="fill: #f2cb15;"/>
      <g>
        <path d="m205.82,460.56c-2.3,0-4.5-.98-6.04-2.7-1.54-1.71-2.27-4.01-2.02-6.29l5.99-54.64c.45-4.12,3.92-7.22,8.06-7.22h40.56c4.14,0,7.61,3.11,8.06,7.22l5.99,54.64c.25,2.29-.49,4.58-2.02,6.29-1.54,1.71-3.74,2.7-6.04,2.7h-52.54Z" style="fill: #d75181;"/>
        <path d="m252.37,393.21c2.35,0,4.32,1.77,4.58,4.1l5.99,54.64c.3,2.73-1.84,5.11-4.58,5.11h-52.54c-2.74,0-4.88-2.38-4.58-5.11l5.99-54.64c.26-2.34,2.23-4.1,4.58-4.1h40.56m0-7h-40.56c-5.93,0-10.89,4.45-11.54,10.34l-5.99,54.64c-.36,3.27.7,6.56,2.89,9.01,2.2,2.45,5.35,3.86,8.64,3.86h52.54c3.29,0,6.44-1.41,8.64-3.86,2.2-2.45,3.25-5.74,2.89-9.01l-5.99-54.64c-.65-5.9-5.61-10.34-11.54-10.34h0Z" style="fill: #fff;"/>
      </g>
      <polygon points="351.65 482.67 288.83 482.67 295.83 418.82 344.65 418.82 351.65 482.67" style="fill: #f2cb15;"/>
      <g>
        <path d="m288.83,458.59c-1,0-1.94-.42-2.61-1.16-.66-.74-.98-1.73-.87-2.72l7-63.85c.2-1.77,1.69-3.12,3.48-3.12h48.82c1.79,0,3.28,1.34,3.48,3.12l7,63.85c.11.99-.21,1.98-.87,2.72-.66.74-1.61,1.16-2.61,1.16h-62.82Z" style="fill: #d75181;"/>
        <path d="m344.65,391.24l7,63.85h-62.82l7-63.85h48.82m0-7h-48.82c-3.57,0-6.57,2.69-6.96,6.24l-7,63.85c-.22,1.98.42,3.95,1.75,5.44,1.33,1.48,3.22,2.33,5.21,2.33h62.82c1.99,0,3.88-.85,5.21-2.33,1.33-1.48,1.96-3.46,1.75-5.44l-7-63.85c-.39-3.55-3.39-6.24-6.96-6.24h0Z" style="fill: #fff;"/>
      </g>
      <polygon points="349.82 374.13 287 374.13 294 310.28 342.82 310.28 349.82 374.13" style="fill: #f2cb15;"/>
      <g>
        <polygon points="285.83 332.79 320.31 270.41 371.15 291.64 351 360.01 285.83 332.79" style="fill: #d75181;"/>
        <path d="m321.86,274.85l45.05,18.82-18.15,61.61-57.97-24.22,31.07-56.22m-3.09-8.88l-3.04,5.49-31.07,56.22-3.78,6.83,7.21,3.01,57.97,24.22,7.21,3.01,2.21-7.49,18.15-61.61,1.77-6.02-5.79-2.42-45.05-18.82-5.79-2.42h0Z" style="fill: #fff;"/>
      </g>
      <rect x="285.52" y="440.26" width="69.11" height="14.81" style="fill: #d75181;"/>
      <path d="m441.32,478.92h-52.54c-2.74,0-4.88-2.38-4.58-5.11l5.99-54.64c.26-2.34,2.23-4.1,4.58-4.1h40.56c2.35,0,4.32,1.77,4.58,4.1l5.99,54.64c.3,2.73-1.84,5.11-4.58,5.11Z" style="fill: #f2cb15;"/>
      <g>
        <path d="m388.78,458.25c-2.3,0-4.5-.98-6.04-2.7-1.54-1.71-2.27-4.01-2.02-6.29l5.99-54.64c.45-4.12,3.92-7.22,8.06-7.22h40.56c4.14,0,7.61,3.11,8.06,7.22l5.99,54.64c.25,2.29-.49,4.58-2.02,6.29-1.54,1.71-3.74,2.7-6.04,2.7h-52.54Z" style="fill: #d75181;"/>
        <path d="m435.33,390.9c2.35,0,4.32,1.77,4.58,4.1l5.99,54.64c.3,2.73-1.84,5.11-4.58,5.11h-52.54c-2.74,0-4.88-2.38-4.58-5.11l5.99-54.64c.26-2.34,2.23-4.1,4.58-4.1h40.56m0-7h-40.56c-5.93,0-10.89,4.45-11.54,10.34l-5.99,54.64c-.36,3.27.7,6.56,2.89,9.01,2.2,2.45,5.35,3.86,8.64,3.86h52.54c3.29,0,6.44-1.41,8.64-3.86,2.2-2.45,3.25-5.74,2.89-9.01l-5.99-54.64c-.65-5.9-5.61-10.34-11.54-10.34h0Z" style="fill: #fff;"/>
      </g>
      <rect x="378.63" y="440.95" width="72.51" height="13.87" rx="4.13" ry="4.13" style="fill: #d75181;"/>
      <polygon points="345.38 596.85 282.56 596.85 289.56 533 338.38 533 345.38 596.85" style="fill: #f2cb15;"/>
      <g>
        <polygon points="279.34 557.55 312.63 494.53 363.86 514.8 345.02 583.54 279.34 557.55" style="fill: #d75181;"/>
        <path d="m314.26,498.94l45.4,17.96-16.98,61.95-58.41-23.11,30-56.8m-3.26-8.82l-2.93,5.55-30,56.8-3.65,6.91,7.26,2.87,58.41,23.11,7.26,2.87,2.06-7.53,16.98-61.95,1.66-6.05-5.83-2.31-45.4-17.96-5.83-2.31h0Z" style="fill: #fff;"/>
      </g>
      <rect x="281.74" y="552.92" width="69.11" height="14.81" transform="translate(228.3 -77.06) rotate(21.58)" style="fill: #d75181;"/>
      <path d="m431.8,597.03h-51.48c-3.03,0-5.38-2.63-5.05-5.64l5.89-53.68c.28-2.58,2.46-4.53,5.05-4.53h39.71c2.59,0,4.77,1.95,5.05,4.53l5.89,53.68c.33,3.01-2.03,5.64-5.05,5.64Z" style="fill: #f2cb15;"/>
      <rect x="362.99" y="564.14" width="82.98" height="7.15" transform="translate(232.64 -107.84) rotate(21.2)" style="fill: none; stroke: #fff; stroke-linecap: round; stroke-linejoin: round; stroke-width: 7px;"/>
      <g>
        <path d="m429.83,580.02c-1.37,0-2.71-.26-4-.77l-43.12-17.06c-2.87-1.13-5.13-3.45-6.2-6.34-1.07-2.89-.86-6.12.58-8.85l23.07-43.68c1.89-3.57,5.57-5.8,9.62-5.8,1.37,0,2.72.26,4,.76l33.11,13.1c5.17,2.04,7.95,7.62,6.49,12.98l-13.06,47.64c-1.29,4.71-5.6,8-10.49,8Z" style="fill: #d75181;"/>
        <path d="m409.78,501.03c.9,0,1.82.17,2.71.52l33.11,13.1c3.5,1.38,5.39,5.18,4.4,8.8l-13.06,47.64c-.91,3.31-3.9,5.43-7.11,5.43-.9,0-1.82-.17-2.71-.52l-43.12-17.06c-4.08-1.61-5.86-6.42-3.81-10.3l23.07-43.68c1.31-2.48,3.86-3.93,6.52-3.93m0-7h0c-5.34,0-10.21,2.94-12.71,7.66l-23.07,43.68c-1.9,3.61-2.19,7.87-.77,11.69,1.41,3.83,4.4,6.88,8.19,8.38l43.12,17.06c1.7.67,3.47,1.01,5.29,1.01,6.45,0,12.15-4.35,13.86-10.58l13.06-47.64c1.94-7.08-1.74-14.46-8.57-17.16l-33.11-13.1c-1.69-.67-3.47-1.01-5.28-1.01h0Z" style="fill: #fff;"/>
      </g>
      <rect x="400.98" y="525.95" width="14.81" height="69.11" rx="4.49" ry="4.49" transform="translate(-263.04 734.06) rotate(-68.42)" style="fill: #d75181;"/>
      <path d="m56.79,627.69v.03s.02-.01.03-.01c0-.01-.02-.01-.03-.02Z" style="fill: #f2cb15; opacity: .18;"/>
      <path d="m100.97,693.6v.11l-5.8,1.39c-.63.3-1.28.52-1.96.71-1.03.27-2.07.44-3.1.49-.19.03-.38.03-.57.03-3.29.08-6.64-.93-9.86-2.78-2.99-1.74-5.88-4.25-8.41-7.38-.68-.84-1.33-1.72-1.96-2.61-1.74-2.5-3.29-5.28-4.57-8.33,0-.03-.03-.08-.05-.11-.63-1.42-1.17-2.89-1.66-4.41-.24-.76-.46-1.55-.68-2.34-.27-.98-.52-1.99-.71-2.97-.38-1.77-.65-3.54-.82-5.25-.05-.52-.11-1.06-.14-1.58-.03-.38-.05-.74-.08-1.12-.03-.68-.05-1.36-.05-2.04v-.11c0-1.82.11-3.59.33-5.31.11-.95.27-1.91.46-2.83.05-.38.11-.74.19-1.09.95-4.14,2.56-7.79,4.76-10.67,2.23-2.99,5.09-5.15,8.49-6.15v-.05l10.32-2.97.08.22c-.65.05-1.28.19-1.91.35-1.44.38-2.8.98-4.06,1.8-1.42.84-2.72,1.99-3.84,3.29-.44.46-.84.98-1.23,1.5-.33.44-.63.87-.9,1.31-.65,1.01-1.23,2.1-1.72,3.27-.46,1.01-.87,2.07-1.2,3.19-.24.82-.49,1.66-.68,2.51-.05.16-.08.33-.11.49-.14.68-.27,1.36-.35,2.04-.03.03-.05.08-.03.14-.05.33-.11.65-.14.98-.03.08-.05.14-.03.22-.11.71-.19,1.42-.24,2.12,0,.08-.03.14,0,.19-.08,1.01-.11,2.01-.11,3.05v1.14c.08,3.87.65,7.92,1.77,12.03.93,3.46,2.18,6.7,3.65,9.64.41.82.84,1.63,1.31,2.4.24.44.49.87.76,1.31.16.27.33.54.52.82.16.27.35.54.54.82.52.74,1.03,1.47,1.58,2.15.6.74,1.17,1.44,1.8,2.12.65.74,1.31,1.42,1.99,2.04h.03c.93.9,1.91,1.69,2.89,2.4.49.35.98.71,1.5,1.01.52.33,1.01.63,1.52.9,1.28.71,2.56,1.25,3.87,1.63,1.63.49,3.27.76,4.87.76,1.25,0,2.5-.14,3.73-.44Z" style="fill: #b23e28;"/>
      <path d="m56.82,627.71s-.02.01-.02.01v-.03s.01.01.02.02Z" style="fill: #f2cb15; opacity: .18;"/>
      <path d="m90.1,696.3l-.54.14-.03-.11c.19,0,.38,0,.57-.03Z" style="fill: #f2cb15; opacity: .18;"/>
      <path d="m114.14,654.23c-4.71-17.45-17.4-29.41-28.97-27.8-.65.05-1.28.19-1.91.35-1.44.38-2.8.98-4.06,1.8-1.42.84-2.72,1.99-3.84,3.29-.44.46-.84.98-1.23,1.5-.33.44-.63.87-.9,1.31-.65,1.03-1.2,2.12-1.72,3.27-.46,1.01-.87,2.07-1.2,3.19-.24.82-.49,1.66-.68,2.51-.05.16-.08.33-.11.49-.14.68-.27,1.36-.35,2.04-.03.03-.05.08-.03.14-.05.33-.11.65-.14.98-.03.08-.05.14-.03.22-.11.71-.19,1.42-.24,2.12,0,.08-.03.14,0,.19-.08,1.01-.11,2.01-.11,3.05v1.14c.08,3.87.65,7.92,1.77,12.03.93,3.46,2.18,6.7,3.65,9.64.41.82.84,1.63,1.31,2.4.24.44.49.87.76,1.31.16.27.33.54.52.82.16.27.35.54.54.82.52.74,1.03,1.47,1.58,2.15.6.74,1.17,1.44,1.8,2.12.65.74,1.31,1.42,1.99,2.04h.03c.93.9,1.91,1.69,2.89,2.4.49.35.98.71,1.5,1.01.52.33,1.01.63,1.52.9,1.28.71,2.56,1.25,3.87,1.63,1.63.49,3.27.76,4.87.76,1.25,0,2.5-.14,3.73-.44.11-.03.22-.05.33-.08,12.09-3.27,17.83-20.86,12.85-39.29Zm-12.39,35.75c-.19.08-.38.14-.57.19-.03,0-.05.03-.08.03-3.49.93-7.16.33-10.67-1.52-.76-.38-1.5-.82-2.21-1.33-.27-.19-.52-.38-.79-.57-2.29-1.72-4.47-3.92-6.43-6.59-.3-.41-.6-.84-.87-1.28-.38-.54-.74-1.09-1.06-1.66-.35-.54-.68-1.12-.98-1.72-.03,0-.03-.03-.03-.03-1.09-2.04-2.07-4.27-2.89-6.62-.19-.54-.35-1.06-.52-1.61-.19-.57-.35-1.17-.52-1.74-.52-1.96-.93-3.89-1.17-5.83-.05-.16-.08-.35-.08-.54-.11-.84-.19-1.66-.24-2.48-.03-.14-.03-.3-.03-.46-.08-.87-.11-1.74-.11-2.59,0-.76,0-1.5.05-2.23.03-.46.05-.93.11-1.39,0-.16.03-.33.05-.49.05-.71.14-1.42.25-2.1.63-3.89,1.85-7.35,3.59-10.13.41-.65.84-1.28,1.36-1.85,1.88-2.37,4.27-4.06,7.08-4.82.52-.14,1.03-.24,1.58-.3l-.03-.08s.05.03.08.05h.03c10.05-1.31,21.1,9.42,25.29,24.99,4.38,16.09-.22,31.42-10.21,34.69Z" style="fill: #f36f5b;"/>
      <path d="m101.75,689.98c-.19.08-.38.14-.57.19-.03,0-.05.03-.08.03-3.49.93-7.16.33-10.67-1.52-.76-.38-1.5-.82-2.21-1.33.9-.14,1.82-.33,2.75-.6,12.33-3.51,19.06-17.75,15.06-31.83-3.84-13.53-16.23-21.95-28.1-19.47,1.88-2.37,4.27-4.06,7.08-4.82.52-.14,1.03-.24,1.58-.3,0,0,.03-.03.05-.03h.03c10.05-1.31,21.1,9.42,25.29,24.99,4.38,16.09-.22,31.42-10.21,34.69Z" style="fill: #d55741;"/>
      <path d="m58.82,692.95h-.33v-.05c.11.05.22.05.33.05Z" style="fill: #f2cb15; opacity: .18;"/>
      <path d="m79.67,693.55l-17.97-.52s-.05.03-.08,0l-2.75-.08s-.05,0-.05,0c-.11,0-.22,0-.33-.05-7.35-1.33-14.68-9.42-17.64-20.5-3.43-12.74-.03-24.94,7.65-28.37v-.08l17.78-8.55c-2.21,2.89-3.81,6.53-4.76,10.67-.08.35-.14.71-.19,1.09-.19.93-.35,1.88-.46,2.83-.22,1.72-.33,3.49-.33,5.31v.11c0,.68.03,1.36.05,2.04.03.38.05.74.08,1.12.03.52.08,1.06.14,1.58.16,1.72.44,3.49.82,5.25.19.98.44,1.99.71,2.97.22.79.44,1.58.68,2.34.49,1.52,1.03,2.99,1.66,4.41.03.03.05.08.05.11,1.28,3.05,2.83,5.83,4.57,8.33.63.9,1.28,1.77,1.96,2.61,2.53,3.13,5.42,5.64,8.41,7.38Z" style="fill: #a8434e;"/>
      <path d="m61.62,693.03c-.9.11-1.82.08-2.75-.08l2.75.08Z" style="fill: #f2cb15; opacity: .18;"/>
      <ellipse cx="122.71" cy="813.6" rx=".11" ry=".09" style="fill: #f2cb15;"/>
      <path d="m90.97,686.74c-.93.27-1.85.46-2.75.6-.27-.19-.52-.38-.79-.57-2.29-1.72-4.47-3.92-6.43-6.59-.3-.41-.6-.84-.87-1.28-.38-.54-.74-1.09-1.06-1.66-.35-.54-.68-1.12-.98-1.72-.03,0-.03-.03-.03-.03,1.28-3.59,1.61-8.09.76-12.77-.98-5.25-3.27-9.77-6.15-12.72,0-.16.03-.33.05-.49.05-.71.14-1.42.25-2.1.63-3.89,1.85-7.35,3.59-10.13.41-.65.84-1.28,1.36-1.85,11.87-2.48,24.26,5.94,28.1,19.47,4,14.08-2.72,28.32-15.06,31.83Z" style="fill: #c7523e;"/>
      <path d="m78.07,675.5c-1.09-2.04-2.07-4.27-2.89-6.62-.19-.54-.35-1.06-.52-1.61-.19-.57-.35-1.17-.52-1.74-.52-1.96-.93-3.89-1.17-5.83-.05-.16-.08-.35-.08-.54-.11-.84-.19-1.66-.24-2.48-.03-.14-.03-.3-.03-.46-.08-.87-.11-1.74-.11-2.59,0-.76,0-1.5.05-2.23.03-.46.05-.93.11-1.39,2.89,2.94,5.17,7.46,6.15,12.72.84,4.68.52,9.18-.76,12.77Z" style="fill: #7e2919;"/>
      <path d="m140.91,694.79c-4.59-1.36-4.42-10.55-16.17-11.06-4.06-.17-7.28-2.28-10.39-5.12-.65-.61-1.3-1.24-1.95-1.9-2-2.01-4.01-4.23-6.23-6.32-3.52-3.34-7.57-6.37-12.92-7.77-6.37-1.66-11.17-.89-14.59.54-2.03.85-3.56,1.94-4.65,2.89.15.53.31,1.09.49,1.62.16.55.32,1.07.51,1.61.82,2.34,1.8,4.57,2.89,6.62,0,0,0,.02.03.02.3.6.62,1.18.98,1.72.32.57.68,1.12,1.06,1.66.27.44.57.87.87,1.28,1.96,2.67,4.14,4.87,6.43,6.59.27.19.51.38.79.57,0,0,.05-.01.13-.02.33-.04,1.16-.07.99.76h0c-.08.45-.46,1.15-1.37,2.23-.21.25-.42.47-.65.65-2.07,1.82-4.87,1.35-11.29.04h-.01c-2.76-.57-6.19-1.29-10.52-2.05-6.49-1.15-10.98-.49-14,.65h0c-4.19,1.58-5.57,4.11-5.57,4.11,0,0,.72,1.74,1.75,4.2h107.55c-2.67-3.72-9.96-2.28-14.15-3.52Zm-51.52,2.05l-.03-.11c.19,0,.38,0,.57-.03l-.54.14Z" style="fill: #faaa5c;"/>
      <polygon points="219.59 650.98 241.52 652.24 235.86 708.22 218.81 707.24 219.59 650.98" style="fill: #f2cb15;"/>
      <polygon points="206.54 637.05 224.17 636.51 224.37 707.52 210.67 707.93 206.54 637.05" style="fill: #f2cb15;"/>
      <path d="m260.91,684.73l-14.65,27.33-15.55-6.83,10.19-29.28,3.91,1.71c-.39,1.52-.83,3.35-.83,3.35,0,0,2.09,1.08,2.22,1.27.07.12,1.73-1.44,3.03-2.68l5.36,2.36c-.8.94-1.73,3.95-1.73,3.95l4.51,1.2,1.76-3.16,1.79.78Z" style="fill: #f2cb15;"/>
      <polygon points="195.62 678.77 212.16 675.51 216.3 706.2 203.45 708.73 195.62 678.77" style="fill: #f2cb15;"/>
      <polygon points="214.7 706.31 203.11 712.4 180.22 672.82 182.04 671.87 183.72 674.23 186.28 673.28 185.57 670.01 189.72 667.85 191.1 670.65 194.46 668.87 193.36 665.93 195.14 665 214.7 706.31" style="fill: #f2cb15;"/>
      <polygon points="198.05 634.94 205.58 616.48 214.96 634.58 198.05 634.94" style="fill: #f2cb15;"/>
      <polygon points="220.82 652.06 243.85 653.49 235.03 627.7 220.82 652.06" style="fill: #f2cb15;"/>
      <polygon points="195.02 683.62 200.07 657.18 217.31 678.66 195.02 683.62" style="fill: #f2cb15;"/>
      <path d="m360.46,687.47c-2.41-.54-6.63-.05-6.63-.05,0,0-1.95-22.92-16.04-23.6-14.1-.69-13.65,22.8-13.65,22.8,0,0-8.13.46-11.57,0-3.44-.46-6.88.34-6.88.34,0,0,.8-24.63-8.03-21.77-8.83,2.86-10.2,22.69-10.2,22.69-.66.39-1.21.76-1.66,1.13l5.91-36.66,2.63-.57.57,5.84,2.18-1.03,1.02-5.49,5.28-1.27-.57,6.54,4.47-.35-.23-6.98,5.16-2.18,11.81.46,2.17,7.91,1.72-5.73,12.83-.23,2.06,5.5.81-4.7,9.28-.12,7.55,37.53Z" style="fill: #f2cb15;"/>
      <path d="m314.17,625.07l1.72,21.66.92-1.03-.11-8.6s8.25-6.53,12.84-6.19c0,0-2.41-5.73-15.36-5.84Z" style="fill: #d75181;"/>
      <polygon points="284.87 696.56 315.25 693.73 364.01 694.52 364.27 708.3 314.48 709.77 284.36 710.56 284.87 696.56" style="fill: #f2cb15;"/>
      <g>
        <path d="m382.3,675.7l-.79.65c.23-.26.5-.48.79-.65Z" style="fill: #d75181;"/>
        <path d="m424.78,646.04l2.34,30.63h.26c.95.04,1.79.48,2.36,1.15.5.59.8,1.37.77,2.21l-.09,2.68-.05,1.52c-.01.36-.08.69-.21,1.01-.31.85-.97,1.54-1.81,1.87-.12.06-.24.1-.37.12-.31.09-.63.13-.96.12l-4.07-.14-35.25-1.17-2.95-.1-1.04-.03c-.39-.01-.75-.09-1.09-.23-.81-.32-1.45-.96-1.78-1.75-.18-.42-.27-.87-.26-1.36l.04-1.18.1-3.02c.03-.78.32-1.48.79-2.02l.79-.65c.51-.31,1.11-.48,1.76-.46h.16s1.09-7.62,1.09-7.62l3.26-22.78c.29-2,1.67-3.6,3.47-4.25.61-.22,1.28-.33,1.97-.31l25.65.85c2.7.09,4.92,2.21,5.12,4.91Z" style="fill: #d75181;"/>
      </g>
      <path d="m429.51,705.51h-37.1c-1.47,0-2.87-.63-3.85-1.72-.98-1.09-1.45-2.55-1.29-4.01l2.08-18.96c.05-.46.31-.88.71-1.12.4-.24.89-.29,1.32-.12l40.79,15.82c.12.05.25.07.37.07.41-.07.84.03,1.17.28.33.25.55.62.6,1.03l.33,2.99c.16,1.46-.31,2.92-1.29,4.01-.98,1.09-2.38,1.72-3.85,1.72Zm-37.39-22.43l-1.87,17.02c-.07.62.12,1.22.54,1.68.42.47.99.72,1.62.72h37.1c.62,0,1.2-.26,1.62-.72.42-.46.61-1.06.54-1.68l-.2-1.78c-.12-.03-.25-.07-.37-.12l-38.98-15.12Z" style="fill: #414042;"/>
      <path d="m442.22,686.87l-34.93,12.5c-2.06.74-4.3-.48-4.8-2.6l-4.43-18.56,42.07,1.11,1.67.05c.32,0,.56,0,.86-.02.16,0,.34.02.42-.02l1.21,2.49c.95,1.96,0,4.32-2.06,5.06Z" style="fill: #f2cb15;"/>
      <g>
        <path d="m391.67,666.43c-.58,0-1.12-.33-1.37-.88-.32-.71-.04-1.55.65-1.93.44-.24.91-.41,1.41-.5.77-.14,1.52.33,1.73,1.08.21.76-.2,1.54-.94,1.81l-.97.35c-.17.06-.34.09-.51.09Z" style="fill: #414042;"/>
        <path d="m431.98,692.33c-.13,0-.26,0-.38-.03-.47-.04-.91-.14-1.33-.31l-40.3-15.94c-.54-.22-1.01-.51-1.41-.88-.92-.8-1.51-2.01-1.57-3.28-.04-.68.06-1.36.32-2l1.54-3.9c.41-1.01,1.15-1.86,2.09-2.39.07-.04.15-.08.23-.11l.97-.35c.06-.02.13-.04.2-.06.5-.1,1-.13,1.5-.07l13.79-26.11c1.18-2.24,3.49-3.63,6.03-3.63.85,0,1.7.16,2.5.48l23.87,9.44c3.24,1.28,4.99,4.78,4.06,8.14l-7.8,28.46c.78.55,1.38,1.31,1.71,2.2.42,1.11.41,2.32-.03,3.42l-1.54,3.9c-.19.49-.47.94-.81,1.33-.8.97-2.03,1.59-3.35,1.65-.1,0-.19.01-.29.01Zm-39.66-26.05c-.31.2-.54.48-.68.83l-1.54,3.9c-.09.23-.13.47-.11.71.02.48.23.92.57,1.21.16.15.32.25.52.32l3.71,1.47,36.58,14.47c.15.06.31.09.5.11.05,0,.09,0,.14.02.57-.03,1.02-.25,1.32-.62.14-.16.23-.31.29-.47l1.54-3.91c.16-.4.16-.85.01-1.26-.17-.45-.53-.82-.99-1l-.23-.09c-.71-.28-1.1-1.05-.9-1.79l8.12-29.63h0c.52-1.88-.46-3.84-2.27-4.55l-23.87-9.44c-1.81-.71-3.89.09-4.78,1.76l-14.34,27.16c-.35.67-1.16.97-1.86.7l-.15-.06c-.3-.12-.59-.16-.88-.11l-.72.26Z" style="fill: #414042;"/>
      </g>
      <polygon points="437.08 789.15 389.36 789.15 392.1 764.21 433.07 780.42 436.26 781.68 437.08 789.15" style="fill: #f2cb15;"/>
      <polygon points="440.53 765.45 441.46 765.82 438.1 774.34 437.32 776.28 435.59 775.6 435.05 775.39 392.7 758.64 390.69 757.84 388.51 756.97 389.62 754.17 392.65 746.52 393.49 746.85 393.98 747.04 395.98 747.83 399.77 740.65 413.44 714.77 447.93 728.41 438.04 764.47 440.53 765.45" style="fill: #d75181;"/>
      <path d="m438.39,790.32h-50.33l3.04-27.77,46.25,18.3,1.04,9.48Zm-47.72-2.35h45.1l-.6-5.47-42.08-16.65-2.42,22.12Z" style="fill: #414042;"/>
      <path d="m437.98,777.8l-50.99-20.17,5-12.64,3.44,1.36,17.46-33.06,36.44,14.42-9.88,36.06,3.53,1.4-5,12.64Zm-47.95-21.49l3.1,1.23,43.53,17.22,3.28-8.28-3.31-1.3,9.88-36.06-32.53-12.87-17.46,33.06-3.21-1.27-3.28,8.28Z" style="fill: #414042;"/>
      <polygon points="503.8 701.77 460.54 688.71 469.85 666.85 502.55 692.76 505.1 694.77 503.8 701.77" style="fill: #f2cb15;"/>
      <polygon points="528.66 666.59 529.58 666.36 531.74 674.76 532.23 676.68 530.52 677.12 529.99 677.25 488.23 687.98 486.24 688.49 484.09 689.04 483.38 686.28 481.44 678.73 482.27 678.52 482.75 678.39 484.72 677.88 483.64 670.27 479.7 642.84 513.72 634.1 526.21 667.23 528.66 666.59" style="fill: #d75181;"/>
      <path d="m517.44,698.63h-47.8l2.9-26.45,43.9,17.37,1,9.08Zm-45.18-2.35h42.57l-.56-5.07-39.73-15.72-2.28,20.79Z" style="fill: #414042;"/>
      <path d="m517.02,686.8l-3.24-1.28-45.16-17.87,4.78-12.09,3.26,1.29,16.53-31.3,34.61,13.69-9.36,34.14,3.35,1.33-4.78,12.08Zm-45.35-20.46l2.88,1.14,41.16,16.28,3.06-7.73-3.12-1.23,9.36-34.14-30.7-12.14-16.54,31.3-3.04-1.2-3.06,7.72Z" style="fill: #414042;"/>
      <polygon points="532.6 595.57 469.78 595.57 473.38 562.73 527.32 584.07 531.52 585.73 532.6 595.57" style="fill: none; stroke: #414042; stroke-miterlimit: 10; stroke-width: 4px;"/>
      <polygon points="537.14 564.37 538.37 564.86 533.94 576.07 532.92 578.63 530.64 577.73 529.93 577.45 474.18 555.4 471.53 554.35 468.66 553.21 470.12 549.52 474.11 539.44 475.21 539.88 475.86 540.13 478.49 541.17 483.49 531.72 501.48 497.65 546.88 515.61 533.87 563.08 537.14 564.37" style="fill: none; stroke: #414042; stroke-miterlimit: 10; stroke-width: 4px;"/>
      <g>
        <polygon points="498.1 738.8 492.1 750.14 492.99 742.09 493.35 738.8 498.1 738.8" style="fill: #f2cb15;"/>
        <polygon points="534.95 786.39 488.13 786.39 489.82 771.05 490.05 768.9 490.1 768.44 490.38 765.83 490.39 765.82 532.69 765.82 532.7 765.83 532.98 768.44 533.25 770.92 533.27 771.05 533.59 774.02 534.95 786.39" style="fill: #f2cb15;"/>
      </g>
      <g>
        <g>
          <polygon points="537.16 754.78 537.16 765.82 490.36 765.82 488.23 764.98 485.71 763.98 485.66 763.96 485.66 755.29 486.62 755.67 488.74 756.51 489.26 755.53 489.66 754.78 492.1 750.14 498.1 738.8 505.88 724.07 531.49 734.2 533.3 750.79 533.74 754.78 537.16 754.78" style="fill: #d75181;"/>
          <path d="m536.37,754.78h-2.63l-.44-3.99-1.81-16.59-25.61-10.13-7.78,14.73-6,11.34-2.44,4.64-.4.75-.52.98-2.12-.84.1-.89.24-2.18,3.79-34.64c.15-1.32,1.26-2.32,2.6-2.32h36.38c1.34,0,2.45,1,2.6,2.32l1.53,13.98.37,3.35.94,8.66.89,8.07.31,2.76Z" style="fill: #d75181;"/>
          <path d="m536.9,767.58c-.5.55-1.2.86-1.95.86h-46.82c-.74,0-1.44-.31-1.94-.86-.09-.1-.16-.2-.23-.3-.34-.51-.49-1.12-.42-1.73l.12-1.16.05-.41,2.52,1,2.13.84h46.8v-3.74l.38,3.47c.09.74-.15,1.48-.64,2.03Z" style="fill: #d75181;"/>
        </g>
        <path d="m540.14,765.27l-2.21-20.1-.88-8.06-.08-.73-.36-3.35-1.69-15.35c-.29-2.65-2.53-4.65-5.19-4.65h-36.38c-2.66,0-4.9,2-5.19,4.65l-3.72,33.92-1,9.19-.24,2.2-.26,2.28c-.03.27-.03.54-.01.81.05,1.19.51,2.34,1.32,3.23.99,1.11,2.4,1.74,3.88,1.74h46.82c1.48,0,2.89-.63,3.88-1.74.99-1.1,1.47-2.57,1.31-4.04Zm-5.19.56h-46.82s.1-.85.1-.85l-2.52-1-.05-.02v-8.67l.96.38,2.12.84.52-.98.09-.75.79-7.3,3.21-29.23h36.38l1.38,12.61.38,3.34,1.81,16.59.44,3.99h3.42v11.04h-2.21Z" style="fill: #fff;"/>
      </g>
      <g>
        <polygon points="489.66 754.78 489.26 755.53 488.74 756.51 486.62 755.67 485.66 755.29 485.66 754.78 489.66 754.78" style="fill: #d75181;"/>
        <polygon points="490.36 765.82 485.66 765.82 485.66 763.96 485.71 763.98 488.23 764.98 490.36 765.82" style="fill: #d75181;"/>
      </g>
      <path d="m536.61,733.03l-2.75-1.09-2.75-1.08-26.63-10.54-9.76,18.48-1.73,3.29-2.85,5.39-2.78,5.27-.4-.15-2.52-1-.5-.2-5.15,13.04,4.14,1.64,3.03,1.2,2.95,1.16,1.14.46,5.44,2.15,33.96,13.43,4.14-10.46,1.02-2.57-1.02-.4-.34-.13-2.14-.85.45-1.63.72-2.61h0s-3.1,0-3.1,0h-.01s-.7,2.62-.7,2.62l-.72,2.61-.22.81,3.21,1.26-2.96,7.5-24.2-9.57-6.59-2.61-6.59-2.61h-.04s-2.13-.85-2.13-.85l-2.52-1-.05-.02-.28-.11-2.18-.86-.55-.22.79-1.98,2.18-5.52.04.02.96.38,2.12.84.52-.98.4-.75,2.44-4.64,6-11.34,7.78-14.73,25.61,10.13,2.74,1.09,2.74,1.09.25.1-.17.63-1.88,6.84-1.87,6.84.44,3.99h1.56l.76-2.76,1.87-6.85,2.88-10.48-4.2-1.66Z" style="fill: #414042;"/>
      <rect x="74.6" y="717.03" width="6.81" height="43.74" style="fill: #414042;"/>
      <path d="m91.77,760.77v11.8h-.08c0,2.26-.55,4.39-1.52,6.27-2.35-1.52-5.19-2.62-8.3-3.12-.15-.03-.3-.05-.46-.07-1.11-.16-2.25-.24-3.41-.24s-2.3.08-3.4.24c-.2.03-.39.06-.58.1-3.09.51-5.91,1.61-8.25,3.13-.99-1.89-1.54-4.04-1.54-6.31v-11.8h27.54Z" style="fill: #d75181;"/>
      <path d="m110.23,792.43H45.77c.74-2.41,1.74-4.71,2.97-6.85,3.53-6.17,8.96-11.12,15.49-14.04v1.03c0,2.27.55,4.42,1.54,6.31,2.49-1.62,5.51-2.76,8.83-3.23,1.1-.16,2.24-.24,3.4-.24s2.3.08,3.41.24c3.29.46,6.29,1.59,8.76,3.19.97-1.88,1.52-4.01,1.52-6.27h.08v-1.03c5.25,2.35,9.79,6.01,13.2,10.56,2.31,3.08,4.11,6.56,5.26,10.33Z" style="fill: #faf4a1;"/>
      <path d="m81.87,775.72c-.15-.03-.3-.05-.46-.07-1.11-.16-2.25-.24-3.41-.24s-2.3.08-3.4.24c-.2.03-.39.06-.58.1l3.82-12.51,4.03,12.48Z" style="fill: #bb2f61;"/>
      <path d="m110.23,792.43H45.77c.74-2.41,1.74-4.71,2.97-6.85,31.41,1.99,48.05.05,56.23-3.48,2.31,3.08,4.11,6.56,5.26,10.33Z" style="fill: #f0d180;"/>
      <g>
        <polygon points="69.27 851.74 34.48 837.98 11.49 881.5 11.24 881.4 16.19 836.25 67.58 836.25 69.27 851.74" style="fill: #231f20;"/>
        <polygon points="8 887.85 5.34 894.56 5.34 887.85 8 887.85" style="fill: #231f20;"/>
        <polygon points="16.4 903.67 5.34 903.67 5.34 899.29 16.4 903.67" style="fill: #231f20;"/>
        <polygon points="78.07 887.85 78.07 903.67 70.5 903.67 74.84 887.85 78.07 887.85" style="fill: #231f20;"/>
      </g>
      <polygon points="76.28 925.73 7.12 925.73 8.93 909.29 30.6 909.29 67.97 924.08 73.83 909.29 74.47 909.29 76.28 925.73" style="fill: #231f20;"/>
      <path d="m5.34,887.85v6.71l2.66-6.71h-2.66Z" style="fill: #231f20;"/>
      <g>
        <g>
          <g>
            <polygon points="357.59 945.81 314.77 953.46 295.74 953.46 295.99 951.14 296.18 949.37 296.44 947.01 301.39 901.86 352.78 901.86 354.47 917.35 354.97 921.85 356.59 936.69 356.8 938.6 357.52 945.25 357.59 945.81" style="fill: #d75181;"/>
            <polygon points="293.2 953.46 290.54 960.17 290.54 953.46 293.2 953.46" style="fill: #d75181;"/>
            <polygon points="312.45 969.28 290.54 969.28 290.54 960.61 294.05 962 312.45 969.28" style="fill: #d75181;"/>
          </g>
          <polygon points="361.48 991.35 292.32 991.35 294.13 974.9 359.67 974.9 361.48 991.35" style="fill: #f2cb15;"/>
        </g>
        <path d="m355.7,969.28h-4.15l-.95,3.47,4.31,1.69-.18.46-3.8,9.6-24.27-9.6-14.21-5.62-18.4-7.28-3.51-1.39-.15-.06.15-.38,2.66-6.71,1.17-2.96,1.62.64,2.56,1.01,23-43.52,33.42,13.22,8.64,3.42-5.91,21.56.73,6.63h1.61l8.38-30.59-13.95-5.52-34.79-13.76-22.99,43.52-.25-.1-4.32-1.71-6.92,17.49,5.34,2.11,11.06,4.38,14.2,5.62,37.37,14.79,5.86-14.79,1.07-2.7-4.69-1.86.29-1.06Z" style="fill: #414042;"/>
        <polygon points="363.27 953.46 363.27 969.28 312.45 969.28 294.05 962 290.54 960.61 290.54 960.17 293.2 953.46 363.27 953.46" style="fill: #d75181;"/>
        <polygon points="358.43 953.46 314.77 953.46 357.59 945.81 357.7 946.83 358.43 953.46" style="fill: #bb2f61;"/>
      </g>
      <path d="m387.86,902.75c3.56,0,10.21-.04,10.21-.04v3.79s-6.43-.02-9.88-.02c-5.89,0-9.5,2.65-9.5,6.91,0,10.26,21.49,3.51,21.49,17.55,0,7.29-6.32,10.91-15.12,10.91-4,0-9.77.03-9.77.03v-3.71s5.61-.04,9.61-.04c6.8,0,10.8-2.75,10.8-7.18,0-10.21-21.49-3.73-21.49-17.55,0-7.07,5.94-10.64,13.66-10.64Z" style="fill: #414042;"/>
      <path d="m422.1,903.45l15.39,37.75h-4.86l-3.56-8.8h-19.01l-3.56,8.8h-4.86l15.34-37.75h5.13Zm5.83,25.22l-8.32-21.17h-.11l-8.32,21.17h16.74Z" style="fill: #414042;"/>
      <path d="m445.69,903.39l22.63,30.62v-30.62h4.27v37.8h-3.89l-22.63-30.62v30.62h-4.27v-37.8h3.89Z" style="fill: #414042;"/>
      <path d="m494.35,941.2h-13.93v-37.8h13.93c11.88,0,19.98,7.4,19.98,18.9s-8.1,18.9-19.98,18.9Zm.16-34.07h-9.77v30.35h9.77c9.02,0,15.28-5.62,15.28-15.17s-6.26-15.17-15.28-15.17Z" style="fill: #414042;"/>
      <path d="m396.77,969.38v.11c4.97.97,8.15,4.64,8.15,9.56,0,6.32-4.91,10.15-13.12,10.15h-16.25v-37.8h15.17c7.99,0,12.47,3.51,12.47,9.5,0,4-2.38,7.24-6.43,8.48Zm-5.89-14.26h-11.07v12.74h11.56c4.27,0,7.34-2.32,7.34-6.37s-2.65-6.37-7.83-6.37Zm1.13,16.36h-12.2v13.99h12.2c5.45,0,8.42-2.54,8.42-6.8,0-4.64-3.62-7.18-8.42-7.18Z" style="fill: #414042;"/>
      <path d="m448.56,970.3c0,11.5-8.1,19.55-19.66,19.55s-19.66-8.05-19.66-19.55,8.1-19.55,19.66-19.55,19.66,8.05,19.66,19.55Zm-34.83,0c0,9.4,5.99,15.82,15.17,15.82s15.17-6.43,15.17-15.82-5.99-15.82-15.17-15.82-15.17,6.43-15.17,15.82Z" style="fill: #414042;"/>
      <path d="m455.58,951.39l10.37,15.34h.11l10.37-15.34h5.35l-12.91,18.36v.16l14.26,19.28h-5.4l-11.66-16.2h-.11l-11.66,16.2h-5.4l14.26-19.28v-.16l-12.91-18.36h5.35Z" style="fill: #414042;"/>
      <g>
        <g>
          <g>
            <g>
              <polygon points="191.62 879.71 191.37 879.61 196.32 834.46 247.71 834.46 249.4 849.95 214.61 836.19 191.62 879.71" style="fill: #231f20;"/>
              <polygon points="252.52 878.41 209.7 886.06 190.67 886.06 190.92 883.74 193.48 884.75 216.48 841.23 249.9 854.45 251.52 869.29 251.73 871.2 252.45 877.85 252.52 878.41" style="fill: #231f20;"/>
            </g>
            <polygon points="188.13 886.05 185.47 892.76 185.47 886.05 188.13 886.05" style="fill: #231f20;"/>
            <polygon points="196.53 901.88 185.47 901.88 185.47 897.5 196.53 901.88" style="fill: #231f20;"/>
          </g>
          <polygon points="245.86 917.1 221.59 907.5 249.66 907.5 245.86 917.1" style="fill: #231f20;"/>
          <polygon points="256.41 923.94 187.26 923.94 189.06 907.5 210.73 907.5 248.1 922.29 253.96 907.5 254.6 907.5 256.41 923.94" style="fill: #231f20;"/>
        </g>
        <path d="m185.47,886.05v6.71l2.66-6.71h-2.66Z" style="fill: #231f20;"/>
        <polygon points="258.2 886.05 258.2 901.87 207.38 901.87 188.98 894.59 185.47 893.2 185.47 892.76 188.13 886.05 258.2 886.05" style="fill: #231f20;"/>
        <polygon points="253.36 886.05 209.7 886.05 252.52 878.4 252.63 879.42 253.36 886.05" style="fill: #231f20;"/>
      </g>
      <g>
        <g>
          <g>
            <polygon points="169.24 878.53 126.42 886.18 107.39 886.18 107.64 883.86 107.83 882.09 108.09 879.73 113.04 834.58 164.43 834.58 166.12 850.07 166.62 854.57 168.24 869.41 168.45 871.32 169.17 877.97 169.24 878.53" style="fill: #231f20;"/>
            <polygon points="104.85 886.18 102.19 892.89 102.19 886.18 104.85 886.18" style="fill: #231f20;"/>
            <polygon points="124.1 902 102.19 902 102.19 893.33 105.7 894.72 124.1 902" style="fill: #231f20;"/>
          </g>
          <polygon points="173.13 924.07 103.98 924.07 105.78 907.62 171.33 907.62 173.13 924.07" style="fill: #231f20;"/>
        </g>
        <polygon points="174.92 886.18 174.92 902 124.1 902 105.7 894.72 102.19 893.33 102.19 892.89 104.85 886.18 174.92 886.18" style="fill: #231f20;"/>
      </g>
      <line x1="72.56" y1="881.03" x2="72.5" y2="881.22" style="fill: none;"/>
      <g>
        <polygon points="69.27 851.74 34.48 837.98 11.49 881.5 11.24 881.4 16.19 836.25 67.58 836.25 69.27 851.74" style="fill: #231f20;"/>
        <polygon points="8 887.85 5.34 894.56 5.34 887.85 8 887.85" style="fill: #231f20;"/>
        <polygon points="16.4 903.67 5.34 903.67 5.34 899.29 16.4 903.67" style="fill: #231f20;"/>
        <polygon points="78.07 887.85 78.07 903.67 70.5 903.67 74.84 887.85 78.07 887.85" style="fill: #231f20;"/>
      </g>
      <polygon points="76.28 925.73 7.12 925.73 8.93 909.29 30.6 909.29 67.97 924.08 73.83 909.29 74.47 909.29 76.28 925.73" style="fill: #231f20;"/>
      <path d="m70.5,903.67l4.34-15.82,8.38-30.59-13.95-5.52-34.79-13.76-22.99,43.52-.25-.1-4.32-1.71-6.92,17.49,5.34,2.11,11.06,4.38,14.2,5.62,37.37,14.79,5.86-14.79,1.07-2.7-4.69-1.86.29-1.06Zm-.97,5.62l-3.8,9.6-24.27-9.6-14.21-5.62-18.4-7.28-3.51-1.39-.15-.06.15-.38,2.66-6.71,1.17-2.96,1.62.64,2.56,1.01,23-43.52,33.42,13.22,8.64,3.42-5.91,21.56v.02l-1.81,6.61-4.34,15.82-.95,3.47,4.31,1.69-.18.46Z" style="fill: #231f20;"/>
      <line x1="72.56" y1="881.03" x2="72.5" y2="881.22" style="fill: none;"/>
      <g>
        <rect x="21.33" y="941.8" width="98.98" height="98.13" style="fill: none;"/>
        <g>
          <g>
            <g>
              <polygon points="95.5 991.01 61.67 997.05 46.64 997.05 46.84 995.22 46.99 993.82 47.19 991.96 51.1 956.29 91.7 956.29 93.04 968.53 93.43 972.08 94.71 983.81 94.88 985.31 95.45 990.57 95.5 991.01" style="fill: #d75181;"/>
              <polygon points="44.63 997.05 42.53 1002.36 42.53 997.05 44.63 997.05" style="fill: #d75181;"/>
              <polygon points="59.84 1009.55 42.53 1009.55 42.53 1002.7 45.3 1003.8 59.84 1009.55" style="fill: #d75181;"/>
            </g>
            <polygon points="98.58 1026.99 43.94 1026.99 45.37 1013.99 97.15 1013.99 98.58 1026.99" style="fill: #f2cb15;"/>
          </g>
          <path d="m94.01,1009.55h-3.28l-.75,2.74,3.41,1.34-.14.36-3,7.58-19.17-7.58-11.23-4.44-14.54-5.75-2.77-1.1-.12-.05.12-.3,2.1-5.3.92-2.34,1.28.51,2.02.8,18.17-34.38,26.4,10.44,6.83,2.7-4.67,17.03.58,5.24h1.27l6.62-24.17-11.02-4.36-27.49-10.87-18.16,34.38-.2-.08-3.41-1.35-5.47,13.82,4.22,1.67,8.74,3.46,11.22,4.44,29.52,11.68,4.63-11.68.85-2.13-3.71-1.47.23-.84Z" style="fill: #414042;"/>
          <polygon points="99.99 997.05 99.99 1009.55 59.84 1009.55 45.3 1003.8 42.53 1002.7 42.53 1002.36 44.63 997.05 99.99 997.05" style="fill: #d75181;"/>
          <polygon points="96.17 997.05 61.67 997.05 95.5 991.01 95.59 991.82 96.17 997.05" style="fill: #bb2f61;"/>
        </g>
      </g>
      <g>
        <g>
          <g>
            <polygon points="1053.02 435.68 1010.2 443.33 991.17 443.33 991.42 441.01 991.61 439.24 991.87 436.88 996.82 391.73 1048.21 391.73 1049.9 407.22 1050.4 411.72 1052.02 426.56 1052.23 428.47 1052.95 435.12 1053.02 435.68" style="fill: #d75181;"/>
            <polygon points="988.63 443.33 985.97 450.04 985.97 443.33 988.63 443.33" style="fill: #d75181;"/>
            <polygon points="1007.88 459.15 985.97 459.15 985.97 450.48 989.48 451.87 1007.88 459.15" style="fill: #d75181;"/>
          </g>
          <polygon points="1056.91 481.21 987.76 481.21 989.56 464.77 1055.1 464.77 1056.91 481.21" style="fill: #f2cb15;"/>
        </g>
        <path d="m1051.13,459.15h-4.15l-.95,3.47,4.31,1.69-.18.46-3.8,9.6-24.27-9.6-14.21-5.62-18.4-7.28-3.51-1.39-.15-.06.15-.38,2.66-6.71,1.17-2.96,1.62.64,2.56,1.01,23-43.52,33.42,13.22,8.64,3.42-5.91,21.56.73,6.63h1.61l8.38-30.59-13.95-5.52-34.79-13.76-22.99,43.52-.25-.1-4.32-1.71-6.92,17.49,5.34,2.11,11.06,4.38,14.2,5.62,37.37,14.79,5.86-14.79,1.07-2.7-4.69-1.86.29-1.06Z" style="fill: #f8f4f9;"/>
        <polygon points="1058.7 443.33 1058.7 459.15 1007.88 459.15 989.48 451.87 985.97 450.48 985.97 450.04 988.63 443.33 1058.7 443.33" style="fill: #d75181;"/>
        <polygon points="1053.86 443.33 1010.2 443.33 1053.02 435.68 1053.13 436.7 1053.86 443.33" style="fill: #bb2f61;"/>
      </g>
      <g>
        <rect x="853.27" y="382.6" width="98.98" height="98.13" style="fill: none;"/>
        <g>
          <g>
            <g>
              <polygon points="929.13 430.99 892.45 437.54 876.14 437.54 876.36 435.56 876.52 434.04 876.74 432.02 880.98 393.34 925.01 393.34 926.46 406.61 926.89 410.46 928.27 423.18 928.45 424.81 929.07 430.51 929.13 430.99" style="fill: #d75181;"/>
              <polygon points="873.97 437.54 871.69 443.29 871.69 437.54 873.97 437.54" style="fill: #d75181;"/>
              <polygon points="890.46 451.1 871.69 451.1 871.69 443.67 874.7 444.86 890.46 451.1" style="fill: #d75181;"/>
            </g>
            <polygon points="932.46 470 873.22 470 874.77 455.91 930.92 455.91 932.46 470" style="fill: #f2cb15;"/>
          </g>
          <path d="m927.51,451.1h-3.56l-.81,2.97,3.69,1.45-.15.39-3.26,8.22-20.79-8.22-12.17-4.81-15.76-6.24-3.01-1.19-.13-.05.13-.33,2.28-5.75,1-2.54,1.39.55,2.19.87,19.7-37.28,28.63,11.33,7.4,2.93-5.06,18.47.63,5.68h1.38l7.18-26.21-11.95-4.73-29.81-11.79-19.7,37.28-.21-.09-3.7-1.47-5.93,14.98,4.57,1.81,9.48,3.75,12.17,4.81,32.02,12.67,5.02-12.67.92-2.31-4.02-1.59.25-.91Z" style="fill: #f8f4f9;"/>
          <polygon points="934 437.54 934 451.1 890.46 451.1 874.7 444.86 871.69 443.67 871.69 443.29 873.97 437.54 934 437.54" style="fill: #d75181;"/>
          <polygon points="929.85 437.54 892.45 437.54 929.13 430.99 929.23 431.86 929.85 437.54" style="fill: #bb2f61;"/>
        </g>
      </g>
      <path d="m686.13,299.43c-3.67,0-6.8-.8-9.4-2.4s-4.61-3.99-6.05-7.16l4.1-2.16c1.19,2.56,2.71,4.44,4.56,5.64,1.85,1.21,4.15,1.81,6.88,1.81s4.94-.57,6.51-1.7c1.57-1.13,2.35-2.71,2.35-4.73,0-1.3-.32-2.37-.97-3.21-.65-.85-1.5-1.56-2.56-2.13-1.06-.58-2.27-1.06-3.62-1.46-1.35-.4-2.74-.79-4.16-1.19-1.42-.4-2.81-.84-4.16-1.32-1.35-.49-2.56-1.11-3.62-1.86-1.06-.76-1.92-1.7-2.57-2.83-.65-1.13-.97-2.53-.97-4.19s.31-3.02.92-4.32c.61-1.3,1.48-2.41,2.59-3.35,1.12-.94,2.47-1.66,4.08-2.19,1.6-.52,3.38-.78,5.32-.78,3.38,0,6.29.75,8.72,2.24,2.43,1.49,4.27,3.61,5.54,6.34l-3.94,2.11c-.97-2.09-2.33-3.69-4.08-4.81-1.75-1.12-3.83-1.67-6.24-1.67-2.56,0-4.6.57-6.13,1.7s-2.29,2.62-2.29,4.46c0,1.55.56,2.75,1.67,3.59,1.12.85,2.52,1.55,4.21,2.11,1.69.56,3.51,1.07,5.45,1.54,1.94.47,3.76,1.12,5.45,1.94,1.69.83,3.1,1.93,4.21,3.29,1.12,1.37,1.67,3.24,1.67,5.62,0,1.73-.32,3.28-.95,4.64s-1.53,2.53-2.7,3.48c-1.17.95-2.59,1.68-4.27,2.19-1.67.5-3.54.76-5.59.76Z" style="fill: #414042;"/>
      <path d="m726.27,260.76l14.99,37.8h-5.48l-3.79-10.15h-17.15l-3.79,10.15h-5.37l14.99-37.8h5.6Zm-9.91,23.65h14.11l-7.06-18.79-7.06,18.79Z" style="fill: #414042;"/>
      <path d="m748,260.85h4.75l20.84,30.46v-30.46h4.43v37.8h-4.75l-20.84-30.46v30.46h-4.43v-37.8Z" style="fill: #414042;"/>
      <path d="m786.78,260.76h11.88c2.81,0,5.36.48,7.67,1.43,2.3.95,4.27,2.28,5.89,3.97,1.62,1.69,2.87,3.69,3.75,5.99.88,2.3,1.32,4.81,1.32,7.51s-.44,5.2-1.32,7.51c-.88,2.3-2.13,4.3-3.75,5.99-1.62,1.69-3.58,3.02-5.89,3.97s-4.86,1.43-7.67,1.43h-11.88v-37.8Zm4.54,4.32v29.16h7.24c2.12,0,4.04-.37,5.75-1.11,1.71-.74,3.17-1.75,4.37-3.05,1.21-1.3,2.13-2.84,2.78-4.62.65-1.78.97-3.72.97-5.81s-.32-4.08-.97-5.86c-.65-1.78-1.58-3.32-2.78-4.62-1.21-1.3-2.67-2.3-4.37-3.02-1.71-.72-3.63-1.08-5.75-1.08h-7.24Z" style="fill: #414042;"/>
      <path d="m673.28,308.76h14.53c1.62,0,3.09.22,4.4.65,1.31.43,2.44,1.06,3.38,1.89s1.66,1.84,2.16,3.02c.5,1.19.76,2.54.76,4.05,0,4-1.87,6.75-5.62,8.26,2.38.68,4.18,1.85,5.4,3.51,1.22,1.66,1.84,3.67,1.84,6.05,0,1.62-.28,3.07-.84,4.35-.56,1.28-1.34,2.36-2.35,3.24-1.01.88-2.21,1.57-3.62,2.05-1.4.49-2.95.73-4.64.73h-15.39v-37.8Zm4.43,16.15h9.77c1.94,0,3.51-.57,4.7-1.7,1.19-1.13,1.78-2.58,1.78-4.35s-.59-3.14-1.78-4.24c-1.19-1.1-2.75-1.65-4.7-1.65h-9.77v11.93Zm0,4.21v13.23h10.8c2.16,0,3.88-.61,5.16-1.84,1.28-1.22,1.92-2.83,1.92-4.81s-.64-3.53-1.92-4.75c-1.28-1.22-3-1.84-5.16-1.84h-10.8Z" style="fill: #414042;"/>
      <path d="m723.49,347.43c-2.74,0-5.28-.5-7.64-1.49-2.36-.99-4.38-2.36-6.07-4.1-1.69-1.75-3.02-3.83-4-6.26-.97-2.43-1.46-5.07-1.46-7.91s.49-5.53,1.46-7.94c.97-2.41,2.3-4.49,4-6.24,1.69-1.75,3.72-3.11,6.07-4.1s4.91-1.49,7.64-1.49,5.32.5,7.64,1.49,4.34,2.36,6.05,4.1c1.71,1.75,3.04,3.83,4,6.24.95,2.41,1.43,5.06,1.43,7.94s-.48,5.48-1.43,7.91c-.95,2.43-2.29,4.52-4,6.26s-3.73,3.11-6.05,4.1c-2.32.99-4.87,1.49-7.64,1.49Zm0-4.43c2.12,0,4.07-.38,5.83-1.13,1.76-.76,3.28-1.81,4.54-3.16,1.26-1.35,2.24-2.96,2.94-4.83.7-1.87,1.05-3.94,1.05-6.21s-.35-4.35-1.05-6.24c-.7-1.89-1.68-3.51-2.94-4.86-1.26-1.35-2.77-2.39-4.54-3.13-1.76-.74-3.71-1.11-5.83-1.11s-4.07.37-5.83,1.11c-1.76.74-3.29,1.78-4.56,3.13-1.28,1.35-2.27,2.97-2.97,4.86-.7,1.89-1.05,3.97-1.05,6.24s.35,4.34,1.05,6.21c.7,1.87,1.69,3.48,2.97,4.83,1.28,1.35,2.8,2.4,4.56,3.16,1.76.76,3.71,1.13,5.83,1.13Z" style="fill: #414042;"/>
      <path d="m746.97,346.56l13.13-19.6-12.18-18.2h5.48l9.67,15.12,9.67-15.12h5.37l-12.18,18.2,13.13,19.6h-5.59l-10.51-16.42-10.51,16.42h-5.48Z" style="fill: #414042;"/>
      <g>
        <g>
          <g>
            <polygon points="654.52 301.85 611.7 309.5 592.67 309.5 592.92 307.18 593.11 305.41 593.37 303.05 598.32 257.9 649.71 257.9 651.4 273.39 651.9 277.89 653.52 292.73 653.73 294.64 654.45 301.29 654.52 301.85" style="fill: #d75181;"/>
            <polygon points="590.13 309.5 587.47 316.21 587.47 309.5 590.13 309.5" style="fill: #d75181;"/>
            <polygon points="609.38 325.32 587.47 325.32 587.47 316.65 590.98 318.04 609.38 325.32" style="fill: #d75181;"/>
          </g>
          <polygon points="658.41 347.39 589.26 347.39 591.06 330.94 656.6 330.94 658.41 347.39" style="fill: #f2cb15;"/>
        </g>
        <path d="m652.63,325.32h-4.15l-.95,3.47,4.31,1.69-.18.46-3.8,9.6-24.27-9.6-14.21-5.62-18.4-7.28-3.51-1.39-.15-.06.15-.38,2.66-6.71,1.17-2.96,1.62.64,2.56,1.01,23-43.52,33.42,13.22,8.64,3.42-5.91,21.56.73,6.63h1.61l8.38-30.59-13.95-5.52-34.79-13.76-22.99,43.52-.25-.1-4.32-1.71-6.92,17.49,5.34,2.11,11.06,4.38,14.2,5.62,37.37,14.79,5.86-14.79,1.07-2.7-4.69-1.86.29-1.06Z" style="fill: #414042;"/>
        <polygon points="660.2 309.5 660.2 325.32 609.38 325.32 590.98 318.04 587.47 316.65 587.47 316.21 590.13 309.5 660.2 309.5" style="fill: #d75181;"/>
        <polygon points="655.36 309.5 611.7 309.5 654.52 301.85 654.63 302.87 655.36 309.5" style="fill: #bb2f61;"/>
      </g>
      <path d="m959.07,300.34c-3.67,0-6.8-.8-9.4-2.4s-4.61-3.99-6.05-7.16l4.1-2.16c1.19,2.56,2.71,4.44,4.56,5.64,1.85,1.21,4.15,1.81,6.88,1.81s4.94-.57,6.51-1.7c1.57-1.13,2.35-2.71,2.35-4.73,0-1.3-.32-2.37-.97-3.21-.65-.85-1.5-1.56-2.56-2.13-1.06-.58-2.27-1.06-3.62-1.46-1.35-.4-2.74-.79-4.16-1.19-1.42-.4-2.81-.84-4.16-1.32-1.35-.49-2.56-1.11-3.62-1.86-1.06-.76-1.92-1.7-2.57-2.83-.65-1.13-.97-2.53-.97-4.19s.31-3.02.92-4.32c.61-1.3,1.48-2.41,2.59-3.35,1.12-.94,2.47-1.66,4.08-2.19,1.6-.52,3.38-.78,5.32-.78,3.38,0,6.29.75,8.72,2.24,2.43,1.49,4.27,3.61,5.54,6.34l-3.94,2.11c-.97-2.09-2.33-3.69-4.08-4.81-1.75-1.12-3.83-1.67-6.24-1.67-2.56,0-4.6.57-6.13,1.7s-2.29,2.62-2.29,4.46c0,1.55.56,2.75,1.67,3.59,1.12.85,2.52,1.55,4.21,2.11,1.69.56,3.51,1.07,5.45,1.54,1.94.47,3.76,1.12,5.45,1.94,1.69.83,3.1,1.93,4.21,3.29,1.12,1.37,1.67,3.24,1.67,5.62,0,1.73-.32,3.28-.95,4.64s-1.53,2.53-2.7,3.48c-1.17.95-2.59,1.68-4.27,2.19-1.67.5-3.54.76-5.59.76Z" style="fill: #f8f4f9;"/>
      <path d="m999.21,261.68l14.99,37.8h-5.48l-3.79-10.15h-17.15l-3.79,10.15h-5.37l14.99-37.8h5.6Zm-9.91,23.65h14.11l-7.06-18.79-7.06,18.79Z" style="fill: #f8f4f9;"/>
      <path d="m1020.94,261.77h4.75l20.84,30.46v-30.46h4.43v37.8h-4.75l-20.84-30.46v30.46h-4.43v-37.8Z" style="fill: #f8f4f9;"/>
      <path d="m1059.73,261.68h11.88c2.81,0,5.36.48,7.67,1.43,2.3.95,4.27,2.28,5.89,3.97,1.62,1.69,2.87,3.69,3.75,5.99.88,2.3,1.32,4.81,1.32,7.51s-.44,5.2-1.32,7.51c-.88,2.3-2.13,4.3-3.75,5.99-1.62,1.69-3.58,3.02-5.89,3.97s-4.86,1.43-7.67,1.43h-11.88v-37.8Zm4.54,4.32v29.16h7.24c2.12,0,4.04-.37,5.75-1.11,1.71-.74,3.17-1.75,4.37-3.05,1.21-1.3,2.13-2.84,2.78-4.62.65-1.78.97-3.72.97-5.81s-.32-4.08-.97-5.86c-.65-1.78-1.58-3.32-2.78-4.62-1.21-1.3-2.67-2.3-4.37-3.02-1.71-.72-3.63-1.08-5.75-1.08h-7.24Z" style="fill: #f8f4f9;"/>
      <path d="m946.22,309.68h14.53c1.62,0,3.09.22,4.4.65,1.31.43,2.44,1.06,3.38,1.89s1.66,1.84,2.16,3.02c.5,1.19.76,2.54.76,4.05,0,4-1.87,6.75-5.62,8.26,2.38.68,4.18,1.85,5.4,3.51,1.22,1.66,1.84,3.67,1.84,6.05,0,1.62-.28,3.07-.84,4.35-.56,1.28-1.34,2.36-2.35,3.24-1.01.88-2.21,1.57-3.62,2.05-1.4.49-2.95.73-4.64.73h-15.39v-37.8Zm4.43,16.15h9.77c1.94,0,3.51-.57,4.7-1.7,1.19-1.13,1.78-2.58,1.78-4.35s-.59-3.14-1.78-4.24c-1.19-1.1-2.75-1.65-4.7-1.65h-9.77v11.93Zm0,4.21v13.23h10.8c2.16,0,3.88-.61,5.16-1.84,1.28-1.22,1.92-2.83,1.92-4.81s-.64-3.53-1.92-4.75c-1.28-1.22-3-1.84-5.16-1.84h-10.8Z" style="fill: #f8f4f9;"/>
      <path d="m996.44,348.34c-2.74,0-5.28-.5-7.64-1.49-2.36-.99-4.38-2.36-6.07-4.1-1.69-1.75-3.02-3.83-4-6.26-.97-2.43-1.46-5.07-1.46-7.91s.49-5.53,1.46-7.94c.97-2.41,2.3-4.49,4-6.24,1.69-1.75,3.72-3.11,6.07-4.1s4.91-1.49,7.64-1.49,5.32.5,7.64,1.49,4.34,2.36,6.05,4.1c1.71,1.75,3.04,3.83,4,6.24.95,2.41,1.43,5.06,1.43,7.94s-.48,5.48-1.43,7.91c-.95,2.43-2.29,4.52-4,6.26s-3.73,3.11-6.05,4.1c-2.32.99-4.87,1.49-7.64,1.49Zm0-4.43c2.12,0,4.07-.38,5.83-1.13,1.76-.76,3.28-1.81,4.54-3.16,1.26-1.35,2.24-2.96,2.94-4.83.7-1.87,1.05-3.94,1.05-6.21s-.35-4.35-1.05-6.24c-.7-1.89-1.68-3.51-2.94-4.86-1.26-1.35-2.77-2.39-4.54-3.13-1.76-.74-3.71-1.11-5.83-1.11s-4.07.37-5.83,1.11c-1.76.74-3.29,1.78-4.56,3.13-1.28,1.35-2.27,2.97-2.97,4.86-.7,1.89-1.05,3.97-1.05,6.24s.35,4.34,1.05,6.21c.7,1.87,1.69,3.48,2.97,4.83,1.28,1.35,2.8,2.4,4.56,3.16,1.76.76,3.71,1.13,5.83,1.13Z" style="fill: #f8f4f9;"/>
      <path d="m1019.91,347.48l13.13-19.6-12.18-18.2h5.48l9.67,15.12,9.67-15.12h5.37l-12.18,18.2,13.13,19.6h-5.59l-10.51-16.42-10.51,16.42h-5.48Z" style="fill: #f8f4f9;"/>
      <g>
        <g>
          <g>
            <polygon points="927.46 302.77 884.64 310.42 865.61 310.42 865.86 308.1 866.05 306.33 866.31 303.97 871.26 258.82 922.65 258.82 924.34 274.31 924.84 278.81 926.46 293.65 926.67 295.56 927.39 302.21 927.46 302.77" style="fill: #d75181;"/>
            <polygon points="863.07 310.42 860.41 317.13 860.41 310.42 863.07 310.42" style="fill: #d75181;"/>
            <polygon points="882.32 326.24 860.41 326.24 860.41 317.57 863.92 318.96 882.32 326.24" style="fill: #d75181;"/>
          </g>
          <polygon points="931.35 348.31 862.2 348.31 864 331.86 929.55 331.86 931.35 348.31" style="fill: #f2cb15;"/>
        </g>
        <path d="m925.57,326.24h-4.15l-.95,3.47,4.31,1.69-.18.46-3.8,9.6-24.27-9.6-14.21-5.62-18.4-7.28-3.51-1.39-.15-.06.15-.38,2.66-6.71,1.17-2.96,1.62.64,2.56,1.01,23-43.52,33.42,13.22,8.64,3.42-5.91,21.56.73,6.63h1.61l8.38-30.59-13.95-5.52-34.79-13.76-22.99,43.52-.25-.1-4.32-1.71-6.92,17.49,5.34,2.11,11.06,4.38,14.2,5.62,37.37,14.79,5.86-14.79,1.07-2.7-4.69-1.86.29-1.06Z" style="fill: #f8f4f9;"/>
        <polygon points="933.14 310.42 933.14 326.24 882.32 326.24 863.92 318.96 860.41 317.57 860.41 317.13 863.07 310.42 933.14 310.42" style="fill: #d75181;"/>
        <polygon points="928.3 310.42 884.64 310.42 927.46 302.77 927.57 303.79 928.3 310.42" style="fill: #bb2f61;"/>
      </g>
      <g>
        <g>
          <g>
            <polygon points="805.49 434.59 762.67 442.24 743.64 442.24 743.89 439.92 744.08 438.15 744.34 435.79 749.29 390.64 800.68 390.64 802.37 406.13 802.87 410.63 804.49 425.47 804.7 427.38 805.42 434.03 805.49 434.59" style="fill: #d75181;"/>
            <polygon points="741.1 442.24 738.44 448.95 738.44 442.24 741.1 442.24" style="fill: #d75181;"/>
            <polygon points="760.35 458.06 738.44 458.06 738.44 449.39 741.95 450.78 760.35 458.06" style="fill: #d75181;"/>
          </g>
          <polygon points="809.39 480.12 740.23 480.12 742.04 463.68 807.58 463.68 809.39 480.12" style="fill: #f2cb15;"/>
        </g>
        <path d="m803.6,458.06h-4.15l-.95,3.47,4.31,1.69-.18.46-3.8,9.6-24.27-9.6-14.21-5.62-18.4-7.28-3.51-1.39-.15-.06.15-.38,2.66-6.71,1.17-2.96,1.62.64,2.56,1.01,23-43.52,33.42,13.22,8.64,3.42-5.91,21.56.73,6.63h1.61l8.38-30.59-13.95-5.52-34.79-13.76-22.99,43.52-.25-.1-4.32-1.71-6.92,17.49,5.34,2.11,11.06,4.38,14.2,5.62,37.37,14.79,5.86-14.79,1.07-2.7-4.69-1.86.29-1.06Z" style="fill: #414042;"/>
        <polygon points="811.17 442.24 811.17 458.06 760.35 458.06 741.95 450.78 738.44 449.39 738.44 448.95 741.1 442.24 811.17 442.24" style="fill: #d75181;"/>
        <polygon points="806.33 442.24 762.67 442.24 805.49 434.59 805.6 435.61 806.33 442.24" style="fill: #bb2f61;"/>
      </g>
      <g>
        <rect x="605.75" y="381.51" width="98.98" height="98.13" style="fill: none;"/>
        <g>
          <g>
            <g>
              <polygon points="681.61 429.9 644.92 436.45 628.62 436.45 628.83 434.46 629 432.95 629.22 430.92 633.46 392.24 677.49 392.24 678.93 405.51 679.36 409.37 680.75 422.08 680.93 423.72 681.55 429.42 681.61 429.9" style="fill: #d75181;"/>
              <polygon points="626.44 436.45 624.16 442.2 624.16 436.45 626.44 436.45" style="fill: #d75181;"/>
              <polygon points="642.93 450 624.16 450 624.16 442.58 627.17 443.77 642.93 450" style="fill: #d75181;"/>
            </g>
            <polygon points="684.94 468.91 625.69 468.91 627.24 454.82 683.39 454.82 684.94 468.91" style="fill: #f2cb15;"/>
          </g>
          <path d="m679.99,450h-3.56l-.81,2.97,3.69,1.45-.15.39-3.26,8.22-20.79-8.22-12.17-4.81-15.76-6.24-3.01-1.19-.13-.05.13-.33,2.28-5.75,1-2.54,1.39.55,2.19.87,19.7-37.28,28.63,11.33,7.4,2.93-5.06,18.47.63,5.68h1.38l7.18-26.21-11.95-4.73-29.81-11.79-19.7,37.28-.21-.09-3.7-1.47-5.93,14.98,4.57,1.81,9.48,3.75,12.17,4.81,32.02,12.67,5.02-12.67.92-2.31-4.02-1.59.25-.91Z" style="fill: #414042;"/>
          <polygon points="686.47 436.45 686.47 450 642.93 450 627.17 443.77 624.16 442.58 624.16 442.2 626.44 436.45 686.47 436.45" style="fill: #d75181;"/>
          <polygon points="682.33 436.45 644.92 436.45 681.61 429.9 681.7 430.77 682.33 436.45" style="fill: #bb2f61;"/>
        </g>
      </g>
      <path d="m620.21,552.66v6.71l2.66-6.71h-2.66Z" style="fill: #414042;"/>
      <g>
        <g>
          <polygon points="684.14 516.55 649.35 502.79 626.36 546.31 626.11 546.21 631.06 501.06 682.45 501.06 684.14 516.55" style="fill: #414042;"/>
          <polygon points="622.87 552.66 620.21 559.37 620.21 552.66 622.87 552.66" style="fill: #414042;"/>
          <polygon points="631.27 568.48 620.21 568.48 620.21 564.1 631.27 568.48" style="fill: #414042;"/>
          <polygon points="692.94 552.66 692.94 568.48 685.37 568.48 689.71 552.66 692.94 552.66" style="fill: #414042;"/>
        </g>
        <polygon points="691.15 590.54 621.99 590.54 623.8 574.1 645.47 574.1 682.84 588.89 688.7 574.1 689.34 574.1 691.15 590.54" style="fill: #414042;"/>
        <line x1="687.43" y1="545.83" x2="687.37" y2="546.02" style="fill: none;"/>
        <g>
          <polygon points="684.14 516.55 649.35 502.79 626.36 546.31 626.11 546.21 631.06 501.06 682.45 501.06 684.14 516.55" style="fill: #414042;"/>
          <polygon points="622.87 552.66 620.21 559.37 620.21 552.66 622.87 552.66" style="fill: #414042;"/>
          <polygon points="631.27 568.48 620.21 568.48 620.21 564.1 631.27 568.48" style="fill: #414042;"/>
          <polygon points="692.94 552.66 692.94 568.48 685.37 568.48 689.71 552.66 692.94 552.66" style="fill: #414042;"/>
        </g>
        <polygon points="691.15 590.54 621.99 590.54 623.8 574.1 645.47 574.1 682.84 588.89 688.7 574.1 689.34 574.1 691.15 590.54" style="fill: #414042;"/>
        <path d="m685.37,568.48l4.34-15.82,8.38-30.59-13.95-5.52-34.79-13.76-22.99,43.52-.25-.1-4.32-1.71-6.92,17.49,5.34,2.11,11.06,4.38,14.2,5.62,37.37,14.79,5.86-14.79,1.07-2.7-4.69-1.86.29-1.06Zm-.97,5.62l-3.8,9.6-24.27-9.6-14.21-5.62-18.4-7.28-3.51-1.39-.15-.06.15-.38,2.66-6.71,1.17-2.96,1.62.64,2.56,1.01,23-43.52,33.42,13.22,8.64,3.42-5.91,21.56v.02l-1.81,6.61-4.34,15.82-.95,3.47,4.31,1.69-.18.46Z" style="fill: #414042;"/>
        <line x1="687.43" y1="545.83" x2="687.37" y2="546.02" style="fill: none;"/>
      </g>
      <path d="m721.11,543.25v6.71l2.66-6.71h-2.66Z" style="fill: #f8f4f9;"/>
      <g>
        <g>
          <polygon points="785.04 507.14 750.25 493.38 727.26 536.9 727.01 536.8 731.96 491.65 783.35 491.65 785.04 507.14" style="fill: #f8f4f9;"/>
          <polygon points="723.77 543.25 721.11 549.96 721.11 543.25 723.77 543.25" style="fill: #f8f4f9;"/>
          <polygon points="732.17 559.07 721.11 559.07 721.11 554.69 732.17 559.07" style="fill: #f8f4f9;"/>
          <polygon points="793.84 543.25 793.84 559.07 786.27 559.07 790.61 543.25 793.84 543.25" style="fill: #f8f4f9;"/>
        </g>
        <polygon points="792.05 581.13 722.89 581.13 724.7 564.69 746.37 564.69 783.74 579.48 789.6 564.69 790.24 564.69 792.05 581.13" style="fill: #f8f4f9;"/>
        <line x1="788.32" y1="536.43" x2="788.26" y2="536.62" style="fill: #f8f4f9;"/>
        <g>
          <polygon points="785.04 507.14 750.25 493.38 727.26 536.9 727.01 536.8 731.96 491.65 783.35 491.65 785.04 507.14" style="fill: #f8f4f9;"/>
          <polygon points="723.77 543.25 721.11 549.96 721.11 543.25 723.77 543.25" style="fill: #f8f4f9;"/>
          <polygon points="732.17 559.07 721.11 559.07 721.11 554.69 732.17 559.07" style="fill: #f8f4f9;"/>
          <polygon points="793.84 543.25 793.84 559.07 786.27 559.07 790.61 543.25 793.84 543.25" style="fill: #f8f4f9;"/>
        </g>
        <polygon points="792.05 581.13 722.89 581.13 724.7 564.69 746.37 564.69 783.74 579.48 789.6 564.69 790.24 564.69 792.05 581.13" style="fill: #f8f4f9;"/>
        <path d="m786.27,559.07l4.34-15.82,8.38-30.59-13.95-5.52-34.79-13.76-22.99,43.52-.25-.1-4.32-1.71-6.92,17.49,5.34,2.11,11.06,4.38,14.2,5.62,37.37,14.79,5.86-14.79,1.07-2.7-4.69-1.86.29-1.06Zm-.97,5.62l-3.8,9.6-24.27-9.6-14.21-5.62-18.4-7.28-3.51-1.39-.15-.06.15-.38,2.66-6.71,1.17-2.96,1.62.64,2.56,1.01,23-43.52,33.42,13.22,8.64,3.42-5.91,21.56v.02l-1.81,6.61-4.34,15.82-.95,3.47,4.31,1.69-.18.46Z" style="fill: #f8f4f9;"/>
        <line x1="788.32" y1="536.43" x2="788.26" y2="536.62" style="fill: #f8f4f9;"/>
      </g>
      <g style="clip-path: url(#clippath);">
        <g>
          <path d="m2024.66,70.79l839.22,338.8-209.3,518.44-839.22-338.8,209.3-518.44Z" style="fill: #742983;"/>
          <path d="m2024.66,70.79l839.22,338.8-174.41,432.03-839.22-338.8,174.41-432.03Z" style="fill: #3f5eab;"/>
          <path d="m2024.66,70.79l839.22,338.8-139.53,345.63-839.22-338.8,139.53-345.63Z" style="fill: #0d8241;"/>
          <path d="m2024.66,70.79l839.22,338.8-104.65,259.22-839.22-338.8,104.65-259.22Z" style="fill: #fdee0a;"/>
          <path d="m2024.66,70.79l839.22,338.8-69.77,172.81-839.22-338.8,69.77-172.81Z" style="fill: #f78d1e;"/>
          <path d="m2024.66,70.79l839.22,338.8-34.88,86.41-839.22-338.8,34.88-86.41Z" style="fill: #e41e26;"/>
        </g>
      </g>
      <polygon points="2155.28 524.68 2141.62 559.13 2141.62 524.68 2155.28 524.68" style="fill: #d75181;"/>
      <g style="clip-path: url(#clippath-1);">
        <g>
          <path d="m2024.66,70.79l839.22,338.8-209.3,518.44-839.22-338.8,209.3-518.44Z" style="fill: #742983;"/>
          <path d="m2024.66,70.79l839.22,338.8-174.41,432.03-839.22-338.8,174.41-432.03Z" style="fill: #3f5eab;"/>
          <path d="m2024.66,70.79l839.22,338.8-139.53,345.63-839.22-338.8,139.53-345.63Z" style="fill: #0d8241;"/>
          <path d="m2024.66,70.79l839.22,338.8-104.65,259.22-839.22-338.8,104.65-259.22Z" style="fill: #fdee0a;"/>
          <path d="m2024.66,70.79l839.22,338.8-69.77,172.81-839.22-338.8,69.77-172.81Z" style="fill: #f78d1e;"/>
          <path d="m2024.66,70.79l839.22,338.8-34.88,86.41-839.22-338.8,34.88-86.41Z" style="fill: #e41e26;"/>
        </g>
      </g>
      <g style="clip-path: url(#clippath-2);">
        <g>
          <path d="m2024.66,70.79l839.22,338.8-209.3,518.44-839.22-338.8,209.3-518.44Z" style="fill: #742983;"/>
          <path d="m2024.66,70.79l839.22,338.8-174.41,432.03-839.22-338.8,174.41-432.03Z" style="fill: #3f5eab;"/>
          <path d="m2024.66,70.79l839.22,338.8-139.53,345.63-839.22-338.8,139.53-345.63Z" style="fill: #0d8241;"/>
          <path d="m2024.66,70.79l839.22,338.8-104.65,259.22-839.22-338.8,104.65-259.22Z" style="fill: #fdee0a;"/>
          <path d="m2024.66,70.79l839.22,338.8-69.77,172.81-839.22-338.8,69.77-172.81Z" style="fill: #f78d1e;"/>
          <path d="m2024.66,70.79l839.22,338.8-34.88,86.41-839.22-338.8,34.88-86.41Z" style="fill: #e41e26;"/>
        </g>
      </g>
      <path d="m2476.19,605.91h-21.31l-4.88,17.82,22.13,8.68-.92,2.36-19.51,49.29-124.62-49.29-72.96-28.86-94.48-37.38-18.02-7.14-.77-.31.77-1.95,13.66-34.45,6.01-15.2,8.32,3.29,13.14,5.19,118.1-223.46,171.6,67.88,44.36,17.56-30.35,110.7,3.75,34.04h8.27l43.03-157.07-71.63-28.34-178.63-70.65-118.04,223.46-1.28-.51-22.18-8.78-35.53,89.8,27.42,10.83,56.79,22.49,72.91,28.86,191.88,75.94,30.09-75.94,5.49-13.86-24.08-9.55,1.49-5.44Z" style="fill: #f8f4f9;"/>
      <g style="clip-path: url(#clippath-3);">
        <g>
          <path d="m2024.66,70.79l839.22,338.8-209.3,518.44-839.22-338.8,209.3-518.44Z" style="fill: #742983;"/>
          <path d="m2024.66,70.79l839.22,338.8-174.41,432.03-839.22-338.8,174.41-432.03Z" style="fill: #3f5eab;"/>
          <path d="m2024.66,70.79l839.22,338.8-139.53,345.63-839.22-338.8,139.53-345.63Z" style="fill: #0d8241;"/>
          <path d="m2024.66,70.79l839.22,338.8-104.65,259.22-839.22-338.8,104.65-259.22Z" style="fill: #fdee0a;"/>
          <path d="m2024.66,70.79l839.22,338.8-69.77,172.81-839.22-338.8,69.77-172.81Z" style="fill: #f78d1e;"/>
          <path d="m2024.66,70.79l839.22,338.8-34.88,86.41-839.22-338.8,34.88-86.41Z" style="fill: #e41e26;"/>
        </g>
      </g>
      <g style="clip-path: url(#clippath-4);">
        <g>
          <path d="m2024.66,70.79l839.22,338.8-209.3,518.44-839.22-338.8,209.3-518.44Z" style="fill: #742983;"/>
          <path d="m2024.66,70.79l839.22,338.8-174.41,432.03-839.22-338.8,174.41-432.03Z" style="fill: #3f5eab;"/>
          <path d="m2024.66,70.79l839.22,338.8-139.53,345.63-839.22-338.8,139.53-345.63Z" style="fill: #0d8241;"/>
          <path d="m2024.66,70.79l839.22,338.8-104.65,259.22-839.22-338.8,104.65-259.22Z" style="fill: #fdee0a;"/>
          <path d="m2024.66,70.79l839.22,338.8-69.77,172.81-839.22-338.8,69.77-172.81Z" style="fill: #f78d1e;"/>
          <path d="m2024.66,70.79l839.22,338.8-34.88,86.41-839.22-338.8,34.88-86.41Z" style="fill: #e41e26;"/>
        </g>
      </g>
      <g style="mix-blend-mode: darken; opacity: .29;">
        <polygon points="2490.21 524.68 2266.03 524.68 2485.89 485.4 2486.46 490.64 2490.21 524.68" style="fill: #3c2415;"/>
      </g>
      <image width="500" height="500" transform="translate(939.02 557.21)" xlink:href="animated-logo.gif"/>
      <path d="m233.29,65.69l4.34-15.82,8.38-30.59-13.95-5.52L197.27,0l-22.99,43.52-.25-.1-4.32-1.71-6.92,17.49,5.34,2.11,11.06,4.38,14.2,5.62,37.37,14.79,5.86-14.79,1.07-2.7-4.69-1.86.29-1.06Zm-.97,5.62l-3.8,9.6-24.27-9.6-14.21-5.62-18.4-7.28-3.51-1.39-.15-.06.15-.38,2.66-6.71,1.17-2.96,1.62.64,2.56,1.01,23-43.52,33.42,13.22,8.64,3.42-5.91,21.56v.02l-1.81,6.61-4.34,15.82-.95,3.47,4.31,1.69-.18.46Z" style="fill: #231f20;"/>
    </g>
  </g>
</svg>