<?xml version="1.0" encoding="UTF-8"?>
<svg id="Calque_2" data-name="Calque 2" xmlns="http://www.w3.org/2000/svg" viewBox="0 0 235.17 89.52">
  <g id="Layer_1" data-name="Layer 1">
    <path d="m104,41.52c-3.67,0-6.8-.8-9.4-2.4s-4.61-3.99-6.05-7.16l4.1-2.16c1.19,2.56,2.71,4.44,4.56,5.64,1.85,1.21,4.15,1.81,6.88,1.81s4.94-.57,6.51-1.7c1.57-1.13,2.35-2.71,2.35-4.73,0-1.3-.32-2.37-.97-3.21-.65-.85-1.5-1.56-2.56-2.13-1.06-.58-2.27-1.06-3.62-1.46-1.35-.4-2.74-.79-4.16-1.19-1.42-.4-2.81-.84-4.16-1.32-1.35-.49-2.56-1.11-3.62-1.86-1.06-.76-1.92-1.7-2.57-2.83-.65-1.13-.97-2.53-.97-4.19s.31-3.02.92-4.32c.61-1.3,1.48-2.41,2.59-3.35,1.12-.94,2.47-1.66,4.08-2.19,1.6-.52,3.38-.78,5.32-.78,3.38,0,6.29.75,8.72,2.24,2.43,1.49,4.27,3.61,5.54,6.34l-3.94,2.11c-.97-2.09-2.33-3.69-4.08-4.81-1.75-1.12-3.83-1.67-6.24-1.67-2.56,0-4.6.57-6.13,1.7s-2.29,2.62-2.29,4.46c0,1.55.56,2.75,1.67,3.59,1.12.85,2.52,1.55,4.21,2.11,1.69.56,3.51,1.07,5.45,1.54,1.94.47,3.76,1.12,5.45,1.94,1.69.83,3.1,1.93,4.21,3.29,1.12,1.37,1.67,3.24,1.67,5.62,0,1.73-.32,3.28-.95,4.64s-1.53,2.53-2.7,3.48c-1.17.95-2.59,1.68-4.27,2.19-1.67.5-3.54.76-5.59.76Z" style="fill: #f8f4f9;"/>
    <path d="m144.14,2.86l14.99,37.8h-5.48l-3.79-10.15h-17.15l-3.79,10.15h-5.37l14.99-37.8h5.6Zm-9.91,23.65h14.11l-7.06-18.79-7.06,18.79Z" style="fill: #f8f4f9;"/>
    <path d="m165.87,2.94h4.75l20.84,30.46V2.94h4.43v37.8h-4.75l-20.84-30.46v30.46h-4.43V2.94Z" style="fill: #f8f4f9;"/>
    <path d="m204.66,2.86h11.88c2.81,0,5.36.48,7.67,1.43,2.3.95,4.27,2.28,5.89,3.97,1.62,1.69,2.87,3.69,3.75,5.99.88,2.3,1.32,4.81,1.32,7.51s-.44,5.2-1.32,7.51c-.88,2.3-2.13,4.3-3.75,5.99-1.62,1.69-3.58,3.02-5.89,3.97s-4.86,1.43-7.67,1.43h-11.88V2.86Zm4.54,4.32v29.16h7.24c2.12,0,4.04-.37,5.75-1.11,1.71-.74,3.17-1.75,4.37-3.05,1.21-1.3,2.13-2.84,2.78-4.62.65-1.78.97-3.72.97-5.81s-.32-4.08-.97-5.86c-.65-1.78-1.58-3.32-2.78-4.62-1.21-1.3-2.67-2.3-4.37-3.02-1.71-.72-3.63-1.08-5.75-1.08h-7.24Z" style="fill: #f8f4f9;"/>
    <path d="m91.15,50.86h14.53c1.62,0,3.09.22,4.4.65,1.31.43,2.44,1.06,3.38,1.89s1.66,1.84,2.16,3.02c.5,1.19.76,2.54.76,4.05,0,4-1.87,6.75-5.62,8.26,2.38.68,4.18,1.85,5.4,3.51,1.22,1.66,1.84,3.67,1.84,6.05,0,1.62-.28,3.07-.84,4.35-.56,1.28-1.34,2.36-2.35,3.24-1.01.88-2.21,1.57-3.62,2.05-1.4.49-2.95.73-4.64.73h-15.39v-37.8Zm4.43,16.15h9.77c1.94,0,3.51-.57,4.7-1.7,1.19-1.13,1.78-2.58,1.78-4.35s-.59-3.14-1.78-4.24c-1.19-1.1-2.75-1.65-4.7-1.65h-9.77v11.93Zm0,4.21v13.23h10.8c2.16,0,3.88-.61,5.16-1.84,1.28-1.22,1.92-2.83,1.92-4.81s-.64-3.53-1.92-4.75c-1.28-1.22-3-1.84-5.16-1.84h-10.8Z" style="fill: #f8f4f9;"/>
    <path d="m141.37,89.52c-2.74,0-5.28-.5-7.64-1.49-2.36-.99-4.38-2.36-6.07-4.1-1.69-1.75-3.02-3.83-4-6.26-.97-2.43-1.46-5.07-1.46-7.91s.49-5.53,1.46-7.94c.97-2.41,2.3-4.49,4-6.24,1.69-1.75,3.72-3.11,6.07-4.1s4.91-1.49,7.64-1.49,5.32.5,7.64,1.49,4.34,2.36,6.05,4.1c1.71,1.75,3.04,3.83,4,6.24.95,2.41,1.43,5.06,1.43,7.94s-.48,5.48-1.43,7.91c-.95,2.43-2.29,4.52-4,6.26s-3.73,3.11-6.05,4.1c-2.32.99-4.87,1.49-7.64,1.49Zm0-4.43c2.12,0,4.07-.38,5.83-1.13,1.76-.76,3.28-1.81,4.54-3.16,1.26-1.35,2.24-2.96,2.94-4.83.7-1.87,1.05-3.94,1.05-6.21s-.35-4.35-1.05-6.24c-.7-1.89-1.68-3.51-2.94-4.86-1.26-1.35-2.77-2.39-4.54-3.13-1.76-.74-3.71-1.11-5.83-1.11s-4.07.37-5.83,1.11c-1.76.74-3.29,1.78-4.56,3.13-1.28,1.35-2.27,2.97-2.97,4.86-.7,1.89-1.05,3.97-1.05,6.24s.35,4.34,1.05,6.21c.7,1.87,1.69,3.48,2.97,4.83,1.28,1.35,2.8,2.4,4.56,3.16,1.76.76,3.71,1.13,5.83,1.13Z" style="fill: #f8f4f9;"/>
    <path d="m164.84,88.66l13.13-19.6-12.18-18.2h5.48l9.67,15.12,9.67-15.12h5.37l-12.18,18.2,13.13,19.6h-5.59l-10.51-16.42-10.51,16.42h-5.48Z" style="fill: #f8f4f9;"/>
    <g>
      <g>
        <g>
          <polygon points="72.39 43.95 29.57 51.6 10.54 51.6 10.79 49.28 10.98 47.51 11.24 45.15 16.19 0 67.58 0 69.27 15.49 69.77 19.99 71.39 34.83 71.6 36.74 72.32 43.39 72.39 43.95" style="fill: #d75181;"/>
          <polygon points="8 51.6 5.34 58.31 5.34 51.6 8 51.6" style="fill: #d75181;"/>
          <polygon points="27.25 67.42 5.34 67.42 5.34 58.75 8.85 60.14 27.25 67.42" style="fill: #d75181;"/>
        </g>
        <polygon points="76.28 89.49 7.13 89.49 8.93 73.04 74.48 73.04 76.28 89.49" style="fill: #f2cb15;"/>
      </g>
      <path d="m70.5,67.42h-4.15l-.95,3.47,4.31,1.69-.18.46-3.8,9.6-24.27-9.6-14.21-5.62-18.4-7.28-3.51-1.39-.15-.06.15-.38,2.66-6.71,1.17-2.96,1.62.64,2.56,1.01L36.35,6.77l33.42,13.22,8.64,3.42-5.91,21.56.73,6.63h1.61l8.38-30.59-13.95-5.52L34.48,1.73,11.49,45.25l-.25-.1-4.32-1.71L0,60.93l5.34,2.11,11.06,4.38,14.2,5.62,37.37,14.79,5.86-14.79,1.07-2.7-4.69-1.86.29-1.06Z" style="fill: #f8f4f9;"/>
      <polygon points="78.07 51.6 78.07 67.42 27.25 67.42 8.85 60.14 5.34 58.75 5.34 58.31 8 51.6 78.07 51.6" style="fill: #d75181;"/>
      <polygon points="73.23 51.6 29.57 51.6 72.39 43.95 72.5 44.97 73.23 51.6" style="fill: #bb2f61;"/>
    </g>
  </g>
</svg>