<?xml version="1.0" encoding="UTF-8"?>
<svg id="Calque_2" data-name="Calque 2" xmlns="http://www.w3.org/2000/svg" viewBox="0 0 115.46 38.08">
  <g id="Layer_1" data-name="Layer 1">
    <g>
      <path d="m1.42,7.96c.41.42.9.74,1.46.97s1.19.35,1.87.35c.94,0,1.77-.23,2.48-.67.71-.45,1.24-1.09,1.58-1.89l.09-.21-1.96-.99-.1.26c-.17.46-.44.8-.8,1.04-.36.24-.8.36-1.3.36-.35,0-.67-.06-.97-.18-.29-.12-.54-.29-.75-.52-.21-.22-.37-.49-.49-.8-.12-.31-.18-.66-.18-1.03s.06-.72.18-1.03c.12-.31.28-.58.49-.8.21-.22.46-.39.75-.52.29-.12.62-.18.97-.18.5,0,.93.12,1.29.36.36.24.62.58.8,1.04l.1.26,1.96-.99-.09-.21c-.34-.8-.87-1.44-1.58-1.89-.71-.45-1.54-.67-2.48-.67-.68,0-1.31.12-1.87.35s-1.06.56-1.46.97c-.4.41-.72.91-.95,1.47-.23.56-.34,1.18-.34,1.85s.12,1.28.34,1.85c.23.57.55,1.06.95,1.47Z" style="fill: #fff;"/>
      <polygon points="13.26 5.42 16.41 5.42 16.41 9.09 18.61 9.09 18.61 .19 16.41 .19 16.41 3.36 13.26 3.36 13.26 .19 11.06 .19 11.06 9.09 13.26 9.09 13.26 5.42" style="fill: #fff;"/>
      <path d="m23.5,7.29h2.74l.6,1.8h2.34L25.95.19h-2.13l-3.22,8.9h2.29l.6-1.8Zm.67-1.99l.7-2.09.7,2.09h-1.39Z" style="fill: #fff;"/>
      <path d="m32.19,7.96c.41.41.91.74,1.47.97.56.23,1.19.35,1.87.35.47,0,.92-.06,1.33-.17.34-.09.67-.22.97-.39l.83.96,1.45-1.25-.83-.97c.26-.36.47-.75.62-1.19.18-.5.27-1.05.27-1.63,0-.66-.12-1.28-.34-1.85-.23-.57-.55-1.06-.96-1.47-.41-.42-.91-.74-1.47-.97-1.14-.47-2.61-.46-3.73,0-.56.23-1.06.56-1.47.97s-.74.91-.97,1.47c-.23.56-.34,1.18-.34,1.85s.12,1.28.34,1.85c.23.57.55,1.06.97,1.48Zm.94-3.32c0-.36.06-.7.17-1,.12-.3.28-.57.49-.79.21-.22.47-.4.76-.53.29-.13.62-.19.98-.19s.67.06.96.19c.29.13.54.3.75.52.21.22.37.49.49.79.12.3.17.64.17,1s-.06.71-.19,1.03l-.91-1.05-1.45,1.25.98,1.14c-.08.03-.15.05-.23.07-.5.13-1.11.08-1.57-.12-.29-.13-.55-.3-.76-.52-.21-.22-.38-.49-.49-.79-.12-.3-.17-.64-.17-1Z" style="fill: #fff;"/>
      <path d="m43.75,8.32c.33.32.73.56,1.19.72.45.16.95.24,1.48.24s1.03-.08,1.48-.24c.46-.16.86-.4,1.19-.72.34-.32.6-.71.79-1.17s.28-.99.28-1.58V.19h-2.2v5.24c0,.59-.14,1.04-.42,1.32-.28.28-.64.42-1.11.42s-.86-.14-1.14-.42c-.27-.28-.41-.73-.41-1.32V.19h-2.2v5.37c0,.59.09,1.12.28,1.58.19.46.46.86.79,1.17Z" style="fill: #fff;"/>
      <polygon points="59 7.03 55.16 7.03 55.16 5.52 58.52 5.52 58.52 3.46 55.16 3.46 55.16 2.25 59 2.25 59 .19 52.96 .19 52.96 9.09 59 9.09 59 7.03" style="fill: #fff;"/>
    </g>
    <g>
      <path d="m9.05,18.57l-.02-.23H3.8v2.01h3.01c-.11.36-.3.65-.59.86-.36.27-.82.41-1.39.41-.4,0-.75-.07-1.06-.2-.31-.13-.57-.31-.78-.53-.21-.22-.38-.5-.49-.81-.11-.32-.17-.67-.17-1.04s.06-.73.18-1.05c.12-.32.28-.59.49-.82.21-.23.46-.4.75-.53s.63-.19.99-.19c.48,0,.9.11,1.25.33.35.22.63.55.85.97l.12.24,1.87-1.14-.1-.21c-.36-.71-.89-1.28-1.58-1.67-.69-.39-1.49-.59-2.39-.59-.69,0-1.32.12-1.88.35-.57.23-1.06.56-1.46.97-.41.41-.72.91-.95,1.47-.22.56-.33,1.18-.33,1.83s.11,1.28.33,1.84c.22.57.55,1.06.96,1.48.41.41.91.74,1.49.98.57.24,1.22.35,1.92.35.63,0,1.22-.1,1.75-.3.53-.2.98-.49,1.36-.87.37-.37.66-.83.87-1.36.2-.53.3-1.12.3-1.78,0-.12,0-.24-.01-.37,0-.13-.02-.27-.04-.43Z" style="fill: none; stroke: #fff; stroke-miterlimit: 10; stroke-width: .25px;"/>
      <path d="m17.8,19.3c.3-.46.46-1.03.46-1.67,0-.46-.08-.88-.23-1.25-.15-.38-.37-.7-.65-.96-.28-.26-.61-.47-1-.61-.38-.14-.81-.21-1.27-.21h-3.66v8.9h2.16v-2.88h1.05l1.8,2.88h2.47l-2.11-3.28c.4-.22.73-.53.98-.91Zm-4.19-2.69h1.48c.13,0,.25.02.37.07.12.05.22.11.31.2s.16.19.21.32c.05.12.08.27.08.43s-.03.3-.08.42c-.05.12-.12.22-.2.3-.09.08-.19.15-.31.19-.12.05-.25.07-.38.07h-1.48v-2Z" style="fill: none; stroke: #fff; stroke-miterlimit: 10; stroke-width: .25px;"/>
      <path d="m23.11,14.59l-3.22,8.9h2.29l.6-1.8h2.74l.6,1.8h2.34l-3.22-8.9h-2.13Zm1.74,5.11h-1.39l.7-2.09.7,2.09Z" style="fill: none; stroke: #fff; stroke-miterlimit: 10; stroke-width: .25px;"/>
      <rect x="30.34" y="14.59" width="2.2" height="8.9" style="fill: none; stroke: #fff; stroke-miterlimit: 10; stroke-width: .25px;"/>
      <polygon points="42.9 14.59 40.79 14.59 40.79 19.78 37.42 14.59 35.26 14.59 35.26 23.49 37.37 23.49 37.37 18.3 40.74 23.49 42.9 23.49 42.9 14.59" style="fill: none; stroke: #fff; stroke-miterlimit: 10; stroke-width: .25px;"/>
      <path d="m55.23,23.16c.54-.22,1.01-.54,1.41-.94.39-.4.7-.87.92-1.41.22-.54.33-1.13.33-1.76s-.11-1.22-.33-1.76c-.22-.54-.53-1.02-.92-1.41-.39-.4-.87-.71-1.41-.94-.54-.22-1.14-.34-1.78-.34h-3.37v8.9h3.37c.64,0,1.24-.11,1.78-.34Zm-1.98-6.5c.37,0,.71.06,1,.17.29.12.54.28.74.48.2.21.36.46.47.75.11.29.17.62.17.99s-.06.69-.17.98c-.11.29-.27.54-.47.75-.21.21-.45.37-.74.48s-.63.17-1.01.17h-.96v-4.78h.96Z" style="fill: none; stroke: #fff; stroke-miterlimit: 10; stroke-width: .25px;"/>
      <polygon points="66.29 21.43 62.45 21.43 62.45 19.92 65.81 19.92 65.81 17.86 62.45 17.86 62.45 16.65 66.29 16.65 66.29 14.59 60.24 14.59 60.24 23.49 66.29 23.49 66.29 21.43" style="fill: none; stroke: #fff; stroke-miterlimit: 10; stroke-width: .25px;"/>
      <path d="m77.89,23.49c.44-.13.83-.33,1.15-.58.32-.26.58-.57.75-.93.17-.36.26-.77.26-1.21,0-.58-.14-1.06-.42-1.42-.27-.34-.6-.62-1-.83-.38-.2-.8-.35-1.24-.46-.42-.1-.82-.2-1.19-.3-.34-.09-.63-.2-.86-.32-.21-.12-.24-.25-.24-.36,0-.16.09-.3.27-.44.2-.15.51-.23.91-.23s.78.09,1.08.28c.3.19.53.45.7.79l.11.23,1.88-.98-.12-.22c-.37-.71-.87-1.24-1.5-1.59-.63-.35-1.35-.52-2.16-.52-.5,0-.97.06-1.37.19-.41.13-.77.32-1.06.56-.3.25-.53.54-.69.88-.16.34-.25.72-.25,1.13,0,.56.14,1.02.42,1.37.26.33.6.6,1,.79.38.19.8.34,1.23.44.42.1.81.21,1.17.31.34.1.63.22.85.36.17.11.25.24.25.44,0,.22-.11.39-.34.53-.26.16-.61.24-1.02.24-.48,0-.89-.11-1.21-.34-.33-.23-.61-.57-.82-1.01l-.11-.23-1.91.94.1.22c.73,1.63,2.05,2.45,3.91,2.45.54,0,1.04-.07,1.47-.2Z" style="fill: none; stroke: #fff; stroke-miterlimit: 10; stroke-width: .25px;"/>
      <path d="m84.64,14.59l-3.22,8.9h2.29l.6-1.8h2.74l.6,1.8h2.34l-3.22-8.9h-2.13Zm1.74,5.11h-1.39l.7-2.09.7,2.09Z" style="fill: none; stroke: #fff; stroke-miterlimit: 10; stroke-width: .25px;"/>
      <path d="m97.62,18.8c.2-.14.37-.32.51-.52.23-.35.35-.78.35-1.25,0-.37-.07-.71-.21-1.01-.14-.3-.34-.56-.59-.78-.25-.21-.56-.38-.9-.49-.34-.11-.71-.16-1.11-.16h-3.79v8.9h3.97c.45,0,.86-.06,1.23-.19.37-.13.69-.31.94-.54.26-.23.46-.51.6-.83.14-.32.21-.67.21-1.06,0-.56-.15-1.05-.43-1.44-.19-.26-.45-.47-.76-.64Zm-1.55-1.03c-.14.13-.33.2-.56.2h-1.48v-1.42h1.48c.23,0,.42.06.56.2.14.13.21.29.21.51s-.07.38-.21.51Zm-2.04,2.11h1.68c.28,0,.5.07.67.22.16.14.24.34.24.59s-.08.45-.24.59c-.17.15-.38.22-.67.22h-1.68v-1.64Z" style="fill: none; stroke: #fff; stroke-miterlimit: 10; stroke-width: .25px;"/>
      <polygon points="103.23 14.59 101.03 14.59 101.03 23.49 107.08 23.49 107.08 21.43 103.23 21.43 103.23 14.59" style="fill: none; stroke: #fff; stroke-miterlimit: 10; stroke-width: .25px;"/>
      <polygon points="115.33 16.65 115.33 14.59 109.29 14.59 109.29 23.49 115.33 23.49 115.33 21.43 111.49 21.43 111.49 19.92 114.85 19.92 114.85 17.86 111.49 17.86 111.49 16.65 115.33 16.65" style="fill: none; stroke: #fff; stroke-miterlimit: 10; stroke-width: .25px;"/>
    </g>
    <g>
      <path d="m59.9,31.61c.21-.22.46-.39.75-.52.29-.12.62-.18.96-.18.5,0,.93.12,1.3.36.36.24.62.58.8,1.04l.1.26,1.96-.99-.09-.21c-.34-.81-.87-1.44-1.58-1.89-.71-.45-1.54-.67-2.48-.67-.68,0-1.31.12-1.87.35-.57.23-1.06.56-1.46.97-.41.41-.73.91-.95,1.47-.23.56-.34,1.19-.34,1.85s.12,1.28.34,1.85c.23.56.55,1.06.95,1.47.41.41.9.74,1.46.97.56.23,1.19.35,1.87.35.94,0,1.77-.23,2.48-.68.71-.45,1.24-1.08,1.58-1.89l.09-.21-1.96-.99-.1.26c-.17.46-.44.8-.8,1.04-.36.24-.8.36-1.3.36-.35,0-.67-.06-.96-.18-.29-.12-.54-.29-.75-.52-.21-.22-.37-.49-.49-.8-.12-.31-.18-.66-.18-1.03s.06-.72.18-1.03c.12-.31.28-.58.49-.8Z" style="fill: #fff;"/>
      <path d="m75.42,30.12c-.41-.41-.9-.74-1.47-.97-1.13-.47-2.61-.46-3.73,0-.57.23-1.06.56-1.47.97-.41.41-.74.91-.97,1.47-.23.56-.34,1.19-.34,1.85s.12,1.28.34,1.85c.23.56.55,1.06.97,1.48s.91.74,1.47.97c.56.23,1.19.35,1.87.35s1.29-.12,1.86-.35c.57-.23,1.06-.56,1.47-.97.41-.41.73-.91.96-1.47.23-.56.34-1.18.34-1.85s-.12-1.28-.34-1.85-.55-1.06-.96-1.47Zm-.95,3.3c0,.37-.06.72-.18,1.03-.12.31-.28.58-.49.81-.21.23-.46.4-.74.53-.58.26-1.36.25-1.94,0-.29-.12-.55-.3-.76-.53-.21-.23-.38-.5-.49-.8-.12-.31-.18-.66-.18-1.03s.06-.7.18-1c.12-.3.28-.57.49-.79s.47-.4.76-.52c.3-.13.63-.19.99-.19s.67.06.95.19c.28.13.53.3.74.52.21.22.37.49.49.79.12.31.18.64.18,1Z" style="fill: #fff;"/>
      <polygon points="83.91 33.8 81.65 28.99 79.08 28.99 79.08 37.89 81.21 37.89 81.21 32.76 83.18 36.78 84.58 36.78 86.55 32.76 86.55 37.89 88.68 37.89 88.68 28.99 86.16 28.99 83.91 33.8" style="fill: #fff;"/>
      <path d="m97.31,29.83c-.28-.27-.62-.48-1.01-.62-.38-.14-.81-.21-1.27-.21h-3.63v8.9h2.16v-2.81h1.48c.46,0,.88-.07,1.27-.21.39-.14.72-.35,1.01-.62.28-.27.51-.59.66-.97.15-.37.23-.79.23-1.25s-.08-.87-.23-1.24c-.15-.37-.38-.7-.66-.97Zm-3.76,1.17h1.38c.33,0,.59.09.78.29.19.19.28.44.28.75s-.09.55-.28.75c-.19.19-.44.29-.78.29h-1.38v-2.07Z" style="fill: #fff;"/>
      <polygon points="99.9 31.05 102.35 31.05 102.35 37.89 104.63 37.89 104.63 31.05 107.07 31.05 107.07 28.99 99.9 28.99 99.9 31.05" style="fill: #fff;"/>
      <polygon points="109.29 37.89 115.33 37.89 115.33 35.83 111.49 35.83 111.49 34.32 114.85 34.32 114.85 32.26 111.49 32.26 111.49 31.05 115.33 31.05 115.33 28.99 109.29 28.99 109.29 37.89" style="fill: #fff;"/>
    </g>
  </g>
</svg>